<?xml version="1.0" encoding="UTF-8"?>
<svg width="18px" height="16px" viewBox="0 0 18 16" version="1.1" xmlns="http://www.w3.org/2000/svg" xmlns:xlink="http://www.w3.org/1999/xlink">
    <!-- Generator: Sketch 52.6 (67491) - http://www.bohemiancoding.com/sketch -->
    <title>navigation-menu-1</title>
    <desc>Created with Sketch.</desc>
    <g id="Page-1" stroke="none" stroke-width="1" fill="none" fill-rule="evenodd" stroke-linecap="round" stroke-linejoin="round">
        <g id="Tablet_Overview-Copy-10" transform="translate(-381.000000, -127.000000)" stroke="#54676E">
            <g id="Group" transform="translate(378.000000, 123.000000)">
                <g id="navigation-menu-1">
                    <path d="M20.5,6.5 C20.5,7.05228475 20.0522847,7.5 19.5,7.5 L4.5,7.5 C3.94771525,7.5 3.5,7.05228475 3.5,6.5 L3.5,5.5 C3.5,4.94771525 3.94771525,4.5 4.5,4.5 L19.5,4.5 C20.0522847,4.5 20.5,4.94771525 20.5,5.5 L20.5,6.5 Z" id="Shape"></path>
                    <path d="M20.5,12.5 C20.5,13.0522847 20.0522847,13.5 19.5,13.5 L4.5,13.5 C3.94771525,13.5 3.5,13.0522847 3.5,12.5 L3.5,11.5 C3.5,10.9477153 3.94771525,10.5 4.5,10.5 L19.5,10.5 C20.0522847,10.5 20.5,10.9477153 20.5,11.5 L20.5,12.5 Z" id="Shape"></path>
                    <path d="M20.5,18.5 C20.5,19.0522847 20.0522847,19.5 19.5,19.5 L4.5,19.5 C3.94771525,19.5 3.5,19.0522847 3.5,18.5 L3.5,17.5 C3.5,16.9477153 3.94771525,16.5 4.5,16.5 L19.5,16.5 C20.0522847,16.5 20.5,16.9477153 20.5,17.5 L20.5,18.5 Z" id="Shape"></path>
                </g>
            </g>
        </g>
    </g>
</svg>