<?xml version="1.0" encoding="UTF-8"?>
<svg width="61px" height="58px" viewBox="0 0 61 58" version="1.1" xmlns="http://www.w3.org/2000/svg" xmlns:xlink="http://www.w3.org/1999/xlink">
    <!-- Generator: Sketch 51.3 (57544) - http://www.bohemiancoding.com/sketch -->
    <title>analytics</title>
    <desc>Created with Sketch.</desc>
    <defs></defs>
    <g id="Landing-page-mobile_Tablet" stroke="none" stroke-width="1" fill="none" fill-rule="evenodd">
        <g id="Landing-Page-V2-(Design-Sprint)-IRIS-" transform="translate(-164.000000, -1865.000000)" fill="#FFCB05" fill-rule="nonzero">
            <g id="Content" transform="translate(-42.000000, 220.000000)">
                <g id="Second-Section" transform="translate(175.000000, 1256.000000)">
                    <g id="Monitor" transform="translate(0.000000, 356.000000)">
                        <g id="analytics" transform="translate(31.000000, 33.000000)">
                            <path d="M7,44 C3.18175943,44 0,47.1817594 0,51 C0,54.8182406 3.18175943,58 7,58 C10.8182406,58 14,54.8182406 14,51 C14,47.1817594 10.8181113,44 7,44 Z M7,55.4544632 C4.58178528,55.4544632 2.5455368,53.4180855 2.5455368,50.9998707 C2.5455368,48.581656 4.58191454,46.5454075 7,46.5454075 C9.41821472,46.5454075 11.4545925,48.5817853 11.4545925,50.9998707 C11.4544632,53.4180855 9.41808546,55.4544632 7,55.4544632 Z" id="Shape"></path>
                            <path d="M19.5,20 C16.4881269,20 14,22.4881269 14,25.5 C14,28.5118731 16.4881269,31 19.5,31 C22.5118731,31 25,28.5118731 25,25.5 C25,22.4881269 22.5118731,20 19.5,20 Z M19.5,28.381003 C17.9284954,28.381003 16.618997,27.0715046 16.618997,25.5 C16.618997,23.9284954 17.9284954,22.618997 19.5,22.618997 C21.0713716,22.618997 22.381003,23.9284954 22.381003,25.5 C22.381003,27.0715046 21.0715046,28.381003 19.5,28.381003 Z" id="Shape"></path>
                            <path d="M33.5,41 C30.4881269,41 28,43.4881269 28,46.5 C28,49.5118731 30.4881269,52 33.5,52 C36.5118731,52 39,49.5118731 39,46.5 C39,43.4879939 36.5118731,41 33.5,41 Z M33.5,49.381003 C31.9286284,49.381003 30.61913,48.0715046 30.61913,46.5 C30.61913,44.9284954 31.9286284,43.618997 33.5,43.618997 C35.0713716,43.618997 36.38087,44.9284954 36.38087,46.5 C36.381003,48.0715046 35.0713716,49.381003 33.5,49.381003 Z" id="Shape"></path>
                            <path d="M40.5,17 C37.4881269,17 35,19.4881269 35,22.5 C35,25.5118731 37.4881269,28 40.5,28 C43.5118731,28 46,25.5118731 46,22.5 C46,19.4881269 43.5118731,17 40.5,17 Z M40.5,25.381003 C38.9286284,25.381003 37.61913,24.0715046 37.61913,22.5 C37.61913,20.9286284 38.9286284,19.618997 40.5,19.618997 C42.0713716,19.618997 43.38087,20.9284954 43.38087,22.5 C43.38087,24.0715046 42.0713716,25.381003 40.5,25.381003 Z" id="Shape"></path>
                            <path d="M55.5,0 C52.4881269,0 50,2.4881269 50,5.5 C50,8.5118731 52.4881269,11 55.5,11 C58.5118731,11 61,8.5118731 61,5.5 C60.999867,2.4881269 58.5118731,0 55.5,0 Z M55.5,8.38100305 C53.9286284,8.38100305 52.61913,7.07150457 52.61913,5.5 C52.61913,3.92862843 53.9286284,2.61899695 55.5,2.61899695 C57.0715046,2.61899695 58.381003,3.92849543 58.381003,5.5 C58.38087,7.07150457 57.0713716,8.38100305 55.5,8.38100305 Z" id="Shape"></path>
                            <polygon id="Rectangle-path" transform="translate(13.500000, 37.500000) rotate(-63.058295) translate(-13.500000, -37.500000) " points="4 36 23 36 23 39 4 39"></polygon>
                            <polygon id="Rectangle-path" transform="translate(27.500000, 36.000000) rotate(-37.748851) translate(-27.500000, -36.000000) " points="26 28 29 28 29 44 26 44"></polygon>
                            <polygon id="Rectangle-path" transform="translate(37.000000, 34.500000) rotate(-76.279191) translate(-37.000000, -34.500000) " points="29 33 45 33 45 36 29 36"></polygon>
                            <polygon id="Rectangle-path" transform="translate(49.000000, 14.500000) rotate(-45.474044) translate(-49.000000, -14.500000) " points="42 13 56 13 56 16 42 16"></polygon>
                        </g>
                    </g>
                </g>
            </g>
        </g>
    </g>
</svg>