<?xml version="1.0" standalone="no"?>
<!DOCTYPE svg PUBLIC "-//W3C//DTD SVG 20010904//EN"
 "http://www.w3.org/TR/2001/REC-SVG-20010904/DTD/svg10.dtd">
<svg version="1.0" xmlns="http://www.w3.org/2000/svg"
 width="512.000000pt" height="376.000000pt" viewBox="0 0 512.000000 376.000000"
 preserveAspectRatio="xMidYMid meet">

<g transform="translate(0.000000,376.000000) scale(0.100000,-0.100000)"
fill="#000000" stroke="none">
<path d="M693 3736 c-61 -29 -123 -89 -155 -148 -33 -63 -33 -204 0 -268 30
-57 86 -116 136 -142 21 -11 718 -280 1549 -599 831 -319 1513 -581 1514 -583
2 -1 -689 -315 -1534 -697 -1419 -641 -1541 -698 -1590 -743 -72 -66 -95 -113
-101 -206 -5 -96 21 -170 82 -234 63 -64 116 -88 207 -94 64 -4 85 -1 136 20
34 14 897 403 1919 864 1617 731 1863 845 1906 883 169 151 131 410 -75 510
-34 17 -897 351 -1917 743 l-1855 712 -85 3 c-74 3 -92 1 -137 -21z"/>
</g>
</svg>
