<?xml version="1.0" encoding="UTF-8"?>
<svg width="24px" height="23px" viewBox="0 0 24 23" version="1.1" xmlns="http://www.w3.org/2000/svg" xmlns:xlink="http://www.w3.org/1999/xlink">
    <!-- Generator: Sketch 52.1 (67048) - http://www.bohemiancoding.com/sketch -->
    <title>layers-stacked-1</title>
    <desc>Created with Sketch.</desc>
    <g id="Platform" stroke="none" stroke-width="1" fill="none" fill-rule="evenodd" stroke-linecap="round" stroke-linejoin="round">
        <g id="Settings---Schools---Licenses" transform="translate(-28.000000, -391.000000)" stroke="#54676E">
            <g id="Sidebar" transform="translate(0.000000, 71.000000)">
                <g id="Groups" transform="translate(29.000000, 317.332983)">
                    <g id="layers-stacked-1" transform="translate(0.000000, 3.003151)">
                        <path d="M11.2037037,10.4130562 C11.0738169,10.469803 10.9261831,10.469803 10.7962963,10.4130562 L0.361574074,5.87078995 C0.176308415,5.78956438 0.0566185607,5.60628601 0.0566185607,5.40381847 C0.0566185607,5.20135093 0.176308415,5.01807256 0.361574074,4.93684699 L10.7962963,0.394580707 C10.9261831,0.337833911 11.0738169,0.337833911 11.2037037,0.394580707 L21.6384259,4.93684699 C21.8236916,5.01807256 21.9433814,5.20135093 21.9433814,5.40381847 C21.9433814,5.60628601 21.8236916,5.78956438 21.6384259,5.87078995 L11.2037037,10.4130562 Z" id="Shape"></path>
                        <path d="M19.7847222,9.73706913 L21.6384259,10.5445831 C21.8236916,10.6258087 21.9433814,10.8090871 21.9433814,11.0115546 C21.9433814,11.2140222 21.8236916,11.3973005 21.6384259,11.4785261 L11.2037037,16.0207924 C11.0738169,16.0775392 10.9261831,16.0775392 10.7962963,16.0207924 L0.361574074,11.4785261 C0.176308415,11.3973005 0.0566185607,11.2140222 0.0566185607,11.0115546 C0.0566185607,10.8090871 0.176308415,10.6258087 0.361574074,10.5445831 L2.21527778,9.73706913" id="Shape"></path>
                        <path d="M19.7847222,15.3448053 L21.6384259,16.1523193 C21.8236916,16.2335449 21.9433814,16.4168232 21.9433814,16.6192908 C21.9433814,16.8217583 21.8236916,17.0050367 21.6384259,17.0862623 L11.2037037,21.6285285 C11.0738169,21.6852753 10.9261831,21.6852753 10.7962963,21.6285285 L0.361574074,17.0862623 C0.176308415,17.0050367 0.0566185607,16.8217583 0.0566185607,16.6192908 C0.0566185607,16.4168232 0.176308415,16.2335449 0.361574074,16.1523193 L2.21527778,15.3448053" id="Shape"></path>
                    </g>
                </g>
            </g>
        </g>
    </g>
</svg>