<?xml version="1.0" encoding="UTF-8"?>
<svg width="30px" height="28px" viewBox="0 0 30 28" version="1.1" xmlns="http://www.w3.org/2000/svg" xmlns:xlink="http://www.w3.org/1999/xlink">
    <!-- Generator: Sketch 52.6 (67491) - http://www.bohemiancoding.com/sketch -->
    <title>university</title>
    <desc>Created with Sketch.</desc>
    <g id="Symbols" stroke="none" stroke-width="1" fill="none" fill-rule="evenodd">
        <g id="Sidebar---Admin---Teachers" transform="translate(-25.000000, -12.000000)" fill="#54676E">
            <g id="Sidebar">
                <g id="School" transform="translate(25.000000, 7.000000)">
                    <g id="university" transform="translate(0.000000, 5.000000)">
                        <path d="M29.4827586,12.6842716 L22.8672414,12.6842716 L22.8672414,11.4018258 C22.8669181,11.2145212 22.7661207,11.0418843 22.6034483,10.9501141 L15.5172414,6.95220616 L15.5172414,4.91690757 L16.9189655,4.91690757 L16.9189655,5.69052872 C16.9189655,5.97726179 17.1505603,6.20973754 17.4362069,6.20973754 L21.662069,6.20973754 C21.9477155,6.20960774 22.179181,5.97706709 22.1791164,5.69033401 C22.1791164,5.63023559 22.1686422,5.57059148 22.1482759,5.51399772 L21.7241379,4.30424116 L22.1534483,3.12044504 C22.2505603,2.85078095 22.1115517,2.55314449 21.8429095,2.45566304 C21.7865948,2.43521919 21.7271767,2.42477011 21.6672414,2.42470521 L19.7431034,2.42470521 L19.7431034,1.67185242 C19.7431034,1.38511934 19.5115086,1.15264359 19.2258621,1.15264359 L15.5172414,1.15264359 L15.5172414,0.519208825 C15.5172414,0.232475751 15.2856466,0 15,0 C14.7143534,0 14.4827586,0.232475751 14.4827586,0.519208825 L14.4827586,6.95220616 L7.39655172,10.944922 C7.23387931,11.0366922 7.1330819,11.2093291 7.13275862,11.3966337 L7.13275862,12.6790795 L0.517241379,12.6790795 C0.231594828,12.6790795 0,12.9115552 0,13.1982883 L0,26.7807912 C0,27.0675242 0.231594828,27.3 0.517241379,27.3 L29.4827586,27.3 C29.7684052,27.3 30,27.0675242 30,26.7807912 L30,13.2034804 C30,12.9167473 29.7684052,12.6842716 29.4827586,12.6842716 Z M19.7431034,4.39769874 L19.7224138,4.37693039 L19.7224138,3.48389121 L20.9017241,3.48389121 L20.6896552,4.14847851 C20.647306,4.26413227 20.647306,4.39107883 20.6896552,4.5067326 L20.9327586,5.17131989 L17.9534483,5.17131989 L17.9534483,4.91690757 L19.2258621,4.91690757 C19.5115086,4.91690757 19.7431034,4.68443182 19.7431034,4.39769874 Z M15.5172414,2.19106124 L18.7086207,2.19106124 L18.7086207,2.96468239 L18.7086207,3.87848992 L15.5172414,3.87848992 L15.5172414,2.19106124 Z M7.13275862,26.2615824 L1.03448276,26.2615824 L1.03448276,13.7226892 L7.13275862,13.7226892 L7.13275862,26.2615824 Z M14.4827586,26.2615824 L11.7672414,26.2615824 L11.7672414,20.3322176 L14.4827586,20.3322176 L14.4827586,26.2615824 Z M18.2327586,26.2615824 L15.5172414,26.2615824 L15.5172414,20.3322176 L18.2327586,20.3322176 L18.2327586,26.2615824 Z M21.8534483,26.2615824 L19.2672414,26.2615824 L19.2672414,19.8130087 C19.2672414,19.5262757 19.0356466,19.2937999 18.75,19.2937999 L11.25,19.2937999 C10.9643534,19.2937999 10.7327586,19.5262757 10.7327586,19.8130087 L10.7327586,26.2615824 L8.14655172,26.2615824 L8.14655172,11.7237353 L15,7.85043743 L21.8327586,11.7029669 L21.8534483,13.1982883 L21.8534483,26.2615824 Z M28.9655172,26.2615824 L22.8672414,26.2615824 L22.8672414,13.7226892 L28.9655172,13.7226892 L28.9655172,26.2615824 Z" id="Shape" fill-rule="nonzero"></path>
                        <path d="M14.999997,9.6 C13.8393602,9.60275656 12.9,10.5443721 12.9,11.7050089 C12.9027566,12.8648312 13.8451866,13.8027505 15.0050089,13.7999939 C16.1648312,13.7972374 17.1027505,12.8548074 17.0999939,11.694985 C17.0972374,10.5371675 16.1578145,9.6 14.999997,9.6 Z M14.999997,12.7976088 C14.3938045,12.7948522 13.9046406,12.3011775 13.9073971,11.694985 C13.9101537,11.0927395 14.3976888,10.6051417 14.999997,10.6023852 C15.6070039,10.6051417 16.0976088,11.098002 16.0976088,11.7050089 L16.1026207,11.7050089 C16.0998641,12.3112013 15.6061894,12.8003653 14.999997,12.7976088 Z" id="Shape" fill-rule="nonzero"></path>
                        <rect id="Rectangle" x="2.4" y="14.7" width="1" height="2.1"></rect>
                        <rect id="Rectangle" x="4.8" y="14.7" width="1" height="2.1"></rect>
                        <rect id="Rectangle" x="9.6" y="15" width="2.1" height="1"></rect>
                        <rect id="Rectangle" x="13.8" y="15" width="2.1" height="1"></rect>
                        <rect id="Rectangle" x="18.3" y="15" width="2.1" height="1"></rect>
                        <rect id="Rectangle" x="9.6" y="17.4" width="2.1" height="1"></rect>
                        <rect id="Rectangle" x="13.8" y="17.4" width="2.1" height="1"></rect>
                        <rect id="Rectangle" x="18.3" y="17.4" width="2.1" height="1"></rect>
                        <rect id="Rectangle" x="2.4" y="18.9" width="1" height="2.1"></rect>
                        <rect id="Rectangle" x="4.8" y="18.9" width="1" height="2.1"></rect>
                        <rect id="Rectangle" x="2.4" y="23.1" width="1" height="2.1"></rect>
                        <rect id="Rectangle" x="4.8" y="23.1" width="1" height="2.1"></rect>
                        <rect id="Rectangle" x="24.3" y="14.7" width="1" height="2.1"></rect>
                        <rect id="Rectangle" x="26.7" y="14.7" width="1" height="2.1"></rect>
                        <rect id="Rectangle" x="24.3" y="18.9" width="1" height="2.1"></rect>
                        <rect id="Rectangle" x="26.7" y="18.9" width="1" height="2.1"></rect>
                        <rect id="Rectangle" x="24.3" y="23.1" width="1" height="2.1"></rect>
                        <rect id="Rectangle" x="26.7" y="23.1" width="1" height="2.1"></rect>
                    </g>
                </g>
            </g>
        </g>
    </g>
</svg>