<?xml version="1.0" encoding="UTF-8"?>
<svg width="30px" height="25px" viewBox="0 0 30 25" version="1.1" xmlns="http://www.w3.org/2000/svg" xmlns:xlink="http://www.w3.org/1999/xlink">
    <!-- Generator: Sketch 52.6 (67491) - http://www.bohemiancoding.com/sketch -->
    <title>check</title>
    <desc>Created with Sketch.</desc>
    <g id="Landing-Page" stroke="none" stroke-width="1" fill="none" fill-rule="evenodd" stroke-linecap="round" stroke-linejoin="round">
        <g id="Features---Monitor" transform="translate(-94.000000, -5456.000000)" stroke="#9B59B6" stroke-width="1.5">
            <g id="Keeping-Students-Engaged" transform="translate(0.000000, 4975.000000)">
                <g id="Benefits" transform="translate(73.000000, 141.000000)">
                    <g id="Saves-Time" transform="translate(0.000000, 317.000000)">
                        <g id="check" transform="translate(22.000000, 23.000000)">
                            <path d="M0.915558318,14.4378669 C0.64953152,14.6988993 0.500040932,15.0532037 0.500040932,15.4226756 C0.500040932,15.7921474 0.64953152,16.1464518 0.915558318,16.4074843 L7.71486625,23.091722 C8.26914863,23.6344988 9.1656284,23.6344988 9.71991079,23.091722 L27.0844417,6.02285819 C27.3504685,5.76182573 27.4999591,5.40752134 27.4999591,5.03804948 C27.4999591,4.66857762 27.3504685,4.31427323 27.0844417,4.05324077 L24.3938316,1.40746881 C24.128059,1.14591934 23.7673987,0.99895545 23.3913093,0.99895545 C23.0152199,0.99895545 22.6545596,1.14591934 22.388787,1.40746881 L8.71738852,14.8463288 L5.61121297,11.7920949 C5.34544041,11.5305454 4.98478007,11.3835815 4.6086907,11.3835815 C4.23260133,11.3835815 3.87194099,11.5305454 3.60616843,11.7920949 L0.915558318,14.4378669 Z" id="Shape"></path>
                        </g>
                    </g>
                </g>
            </g>
        </g>
    </g>
</svg>