<?xml version="1.0" encoding="UTF-8"?>
<svg width="14px" height="26px" viewBox="0 0 14 26" version="1.1" xmlns="http://www.w3.org/2000/svg" xmlns:xlink="http://www.w3.org/1999/xlink">
    <!-- Generator: Sketch 52.6 (67491) - http://www.bohemiancoding.com/sketch -->
    <title>attachment-1</title>
    <desc>Created with Sketch.</desc>
    <g id="Platform" stroke="none" stroke-width="1" fill="none" fill-rule="evenodd" stroke-linecap="round" stroke-linejoin="round">
        <g id="Books" transform="translate(-899.000000, -172.000000)" stroke="#54676E" stroke-width="2">
            <g id="Student-Group">
                <g id="Skills" transform="translate(130.000000, 92.000000)">
                    <g id="Next-Chapter" transform="translate(420.000000, 13.000000)">
                        <g id="Next" transform="translate(0.000000, 46.000000)">
                            <g id="Correct" transform="translate(332.730539, 0.000000)">
                                <g id="attachment-1" transform="translate(17.269461, 22.000000)">
                                    <path d="M3.5,17 L3.5,9.5 C3.5,7.844 4.343,6.5 6,6.5 C7.657,6.5 8.5,7.844 8.5,9.5 L8.5,19 C8.5,21.486 6.985,23.5 4.5,23.5 C2.015,23.5 0.5,21.486 0.5,19 L0.5,6.5 C0.5,3.186 2.687,0.5 6,0.5 C9.313,0.5 11.5,3.186 11.5,6.5 L11.5,15.5" id="Shape"></path>
                                </g>
                            </g>
                        </g>
                    </g>
                </g>
            </g>
        </g>
    </g>
</svg>