<?xml version="1.0" encoding="UTF-8"?>
<svg width="74px" height="74px" viewBox="0 0 74 74" version="1.1" xmlns="http://www.w3.org/2000/svg" xmlns:xlink="http://www.w3.org/1999/xlink">
    <!-- Generator: Sketch 52.6 (67491) - http://www.bohemiancoding.com/sketch -->
    <title>book</title>
    <desc>Created with Sketch.</desc>
    <g id="Landing-Page" stroke="none" stroke-width="1" fill="none" fill-rule="evenodd">
        <g id="Pricing-#1" transform="translate(-803.000000, -1842.000000)" fill="#F26523" fill-rule="nonzero">
            <g id="Schools-Section" transform="translate(-15.000000, 1141.000000)">
                <g transform="translate(87.000000, 375.000000)" id="Learning-Resources">
                    <g transform="translate(731.000000, 306.000000)">
                        <g id="book" transform="translate(0.000000, 20.000000)">
                            <path d="M36.8294931,0 L20.8700461,0 C20.1920813,0 19.6423963,0.552229779 19.6423963,1.23333333 L19.6423963,9.86666667 L1.22764977,9.86666667 C0.549684941,9.86666667 0,10.4188964 0,11.1 L0,72.7666667 C0,73.4477702 0.549684941,74 1.22764977,74 L36.8294931,74 C37.5074579,74 38.0571429,73.4477702 38.0571429,72.7666667 L38.0571429,1.23333333 C38.0571429,0.552229779 37.5074579,0 36.8294931,0 Z M35.6018433,64.1333333 L22.0976959,64.1333333 L22.0976959,61.6666667 L35.6018433,61.6666667 L35.6018433,64.1333333 Z M2.45529954,18.5 L19.6423963,18.5 L19.6423963,55.5 L2.45529954,55.5 L2.45529954,18.5 Z M35.6018433,13.5666667 L22.0976959,13.5666667 L22.0976959,9.86666667 L35.6018433,9.86666667 L35.6018433,13.5666667 Z M2.45529954,57.9666667 L19.6423963,57.9666667 L19.6423963,61.6666667 L2.45529954,61.6666667 L2.45529954,57.9666667 Z M22.0976959,59.2 L22.0976959,16.0333333 L35.6018433,16.0333333 L35.6018433,59.2 L22.0976959,59.2 Z M35.6018433,2.46666667 L35.6018433,7.4 L22.0976959,7.4 L22.0976959,2.46666667 L35.6018433,2.46666667 Z M19.6423963,12.3333333 L19.6423963,16.0333333 L2.45529954,16.0333333 L2.45529954,12.3333333 L19.6423963,12.3333333 Z M2.45529954,64.1333333 L19.6423963,64.1333333 L19.6423963,71.5333333 L2.45529954,71.5333333 L2.45529954,64.1333333 Z M22.0976959,71.5333333 L22.0976959,66.6 L35.6018433,66.6 L35.6018433,71.5333333 L22.0976959,71.5333333 Z" id="Shape"></path>
                            <path d="M73.9603673,67.4888134 L59.0874894,10.441757 C59.0045798,10.1220299 58.7976087,9.8489297 58.5119642,9.68240531 C58.2269249,9.51648627 57.8874195,9.47107046 57.5684902,9.55645223 L38.9773929,14.5170658 C38.3189582,14.6926734 37.9255919,15.367249 38.0974626,16.0272916 L52.9703405,73.074348 C53.0532501,73.394075 53.2608264,73.6671753 53.5464708,73.8330942 C53.8315101,73.9984075 54.1710155,74.0432178 54.4893397,73.9572307 L73.080437,68.9966171 C73.7376614,68.8210094 74.1304225,68.1476448 73.9603673,67.4888134 Z M42.782153,24.1700371 L58.9785571,19.8494832 L59.5613444,22.081517 L43.3661506,26.408732 L42.782153,24.1700371 Z M60.1870995,24.4879475 L67.375415,52.078333 L51.1850626,56.4007035 L43.9967472,28.8085015 L60.1870995,24.4879475 Z M68.0066167,54.4793135 L69.2756769,59.3460678 L53.0792728,63.6666218 L51.8150539,58.801684 L68.0066167,54.4793135 Z M57.003253,12.2735265 L58.3528021,17.4509248 L42.1563979,21.7702676 L40.8080592,16.5952916 L57.003253,12.2735265 Z M55.0545769,71.2425785 L53.7050278,66.0651802 L69.901432,61.7434152 L71.2497707,66.9183913 L55.0545769,71.2425785 Z" id="Shape"></path>
                            <path d="M15.6457143,22.2 L5.49714286,22.2 C4.7965792,22.2 4.22857143,22.7680078 4.22857143,23.4685714 L4.22857143,33.6171429 C4.22857143,34.3177065 4.7965792,34.8857143 5.49714286,34.8857143 L15.6457143,34.8857143 C16.3462779,34.8857143 16.9142857,34.3177065 16.9142857,33.6171429 L16.9142857,23.4685714 C16.9142857,22.7680078 16.3462779,22.2 15.6457143,22.2 Z M14.3771429,32.3485714 L6.76571429,32.3485714 L6.76571429,24.7371429 L14.3771429,24.7371429 L14.3771429,32.3485714 Z" id="Shape"></path>
                        </g>
                    </g>
                </g>
            </g>
        </g>
    </g>
</svg>