<?xml version="1.0" encoding="UTF-8"?>
<svg width="69px" height="49px" viewBox="0 0 69 49" version="1.1" xmlns="http://www.w3.org/2000/svg" xmlns:xlink="http://www.w3.org/1999/xlink">
    <!-- Generator: Sketch 51.3 (57544) - http://www.bohemiancoding.com/sketch -->
    <title>book</title>
    <desc>Created with Sketch.</desc>
    <defs></defs>
    <g id="Landing-page-mobile_Tablet" stroke="none" stroke-width="1" fill="none" fill-rule="evenodd">
        <g id="Landing-Page-V2-(Design-Sprint)-IRIS-" transform="translate(-162.000000, -1742.000000)" fill="#009CCC" fill-rule="nonzero">
            <g id="Content" transform="translate(-42.000000, 220.000000)">
                <g id="Second-Section" transform="translate(175.000000, 1256.000000)">
                    <g id="Book" transform="translate(0.000000, 224.000000)">
                        <g id="book" transform="translate(29.000000, 42.000000)">
                            <path d="M67.6625315,4.07748352 C67.6580175,4.07748352 67.6535036,4.07748352 67.6491568,4.07748352 L63.1151386,4.07748352 L63.1151386,2.54185062 C63.1395474,1.93405108 62.7423192,1.38780925 62.1521613,1.21802914 C59.0044292,0.401562251 55.7630742,-0.00782953956 52.5090134,0.000113389271 C47.1591394,0.000113389271 39.869936,1.19155271 34.479938,6.61922075 C29.130064,1.13859986 21.7873619,0.000113389271 16.4508626,0.000113389271 C13.1968017,-0.00782953956 9.95544679,0.401562251 6.80771467,1.21802914 C6.2175567,1.38780925 5.82032855,1.93405108 5.84473735,2.54185062 L5.84473735,4.06424531 L1.3374685,4.06424531 C0.598851522,4.06424531 0,4.65698637 0,5.38806678 L0,47.6709246 C0,48.402005 0.598851522,48.9947461 1.3374685,48.9947461 C1.56717872,48.9940842 1.79287653,48.9348432 1.99282807,48.8226493 C2.12657492,48.7564582 15.5012599,41.5151548 34.1723202,46.1750063 L34.3729405,46.1750063 L34.4933127,46.1750063 C34.5999758,46.1877481 34.707642,46.1877481 34.8143051,46.1750063 C53.5388641,41.4754401 66.9135491,48.7035054 66.9937972,48.8226493 C67.4075766,49.0591169 67.9174864,49.0591169 68.3312657,48.8226493 C68.7425373,48.587671 68.9971579,48.1542849 69,47.6841628 L69,5.401305 C69,4.67022459 68.4013157,4.07748352 67.6625315,4.07748352 Z M2.674937,45.5660485 L2.674937,6.72512647 L5.87148672,6.72512647 L5.87148672,39.926569 C5.86312754,40.6576494 6.45512454,41.2570096 7.19374152,41.2652835 C7.26596482,41.2661108 7.33818812,41.2611465 7.4095755,41.2503905 C10.1764635,40.8322284 12.9699336,40.6109847 15.7687536,40.5884797 C19.6457405,40.5219577 23.5065105,41.0991439 27.1907346,42.2962094 C18.8708446,41.3003647 10.4317528,42.4259439 2.674937,45.5660485 Z M15.7687536,37.954075 C13.3360656,37.9595358 10.9062197,38.1142574 8.49292499,38.4174125 L8.49292499,3.58766958 C11.0969762,3.01346202 13.7561979,2.72040104 16.4241132,2.71394741 C21.4262454,2.71394741 28.3275829,3.85243387 33.1157201,9.20067262 L33.1558442,42.1770655 C30.3739097,40.3766683 24.9437876,37.954075 15.7687536,37.954075 Z M35.8307812,9.20067262 C40.6189184,3.90538673 47.5202559,2.71394741 52.5223881,2.71394741 C55.1901362,2.72172486 57.8493579,3.01462036 60.4535763,3.58766958 L60.4535763,38.4174125 C58.0538234,38.1114443 55.6373522,37.9522547 53.2178717,37.9408368 C44.0963365,37.9408368 38.6528397,40.3634301 35.8307812,42.1638273 L35.8307812,9.20067262 Z M66.3116883,45.5660485 C58.5383214,42.4173391 50.0798362,41.2915944 41.7423919,42.2962094 C45.4440032,41.0948414 49.3231634,40.5174898 53.2178717,40.5884797 C56.034246,40.6040346 58.845772,40.8208104 61.6305486,41.2371523 C62.3608064,41.346864 63.0427481,40.849769 63.1535908,40.1269625 C63.1644577,40.0563035 63.1694733,39.9848171 63.1686373,39.9133308 L63.1686373,6.72512647 L66.3651871,6.72512647 L66.3116883,45.5660485 Z" id="Shape"></path>
                        </g>
                    </g>
                </g>
            </g>
        </g>
    </g>
</svg>