<?xml version="1.0" encoding="UTF-8"?>
<svg width="90px" height="63px" viewBox="0 0 90 63" version="1.1" xmlns="http://www.w3.org/2000/svg" xmlns:xlink="http://www.w3.org/1999/xlink">
    <!-- Generator: Sketch 52.6 (67491) - http://www.bohemiancoding.com/sketch -->
    <title>book</title>
    <desc>Created with Sketch.</desc>
    <g id="Landing-Page" stroke="none" stroke-width="1" fill="none" fill-rule="evenodd">
        <g id="Pricing-#1" transform="translate(-80.000000, -1706.000000)" fill="#D72121" fill-rule="nonzero">
            <g id="Schools-Section" transform="translate(-15.000000, 1141.000000)">
                <g transform="translate(87.000000, 375.000000)" id="Books">
                    <g transform="translate(8.000000, 155.000000)">
                        <g id="book" transform="translate(0.000000, 35.000000)">
                            <path d="M87.8703713,5.29743798 C87.864549,5.29743798 87.8587266,5.29743798 87.8531199,5.29743798 L82.0048935,5.29743798 L82.0048935,3.35439226 C82.0363773,2.58533979 81.5240106,1.89417665 80.7627923,1.67935284 C76.7026741,0.646272284 72.521796,0.128266345 68.3245291,0.138316582 C61.423967,0.138316582 52.0219511,1.64585205 45.0696348,8.51351365 C38.1690726,1.57885048 28.6980511,0.138316582 21.8147404,0.138316582 C17.6174735,0.128266345 13.4365954,0.646272284 9.37647717,1.67935284 C8.61525891,1.89417665 8.10289217,2.58533979 8.13437599,3.35439226 L8.13437599,5.28068758 L2.3206524,5.28068758 C1.36794354,5.28068758 0.595511868,6.03068648 0.595511868,6.955727 L0.595511868,60.4564859 C0.595511868,61.3815264 1.36794354,62.1315253 2.3206524,62.1315253 C2.61694529,62.1306878 2.90806275,62.0557298 3.16597126,61.9137702 C3.33848531,61.8300182 20.5898906,52.6675526 44.6728524,58.5636913 L44.9316235,58.5636913 L45.0868862,58.5636913 C45.2244661,58.5798136 45.3633399,58.5798136 45.5009199,58.5636913 C69.6528873,52.6173014 86.9042926,61.7630166 87.0078011,61.9137702 C87.5415164,62.2129741 88.1992263,62.2129741 88.7329416,61.9137702 C89.2634223,61.6164507 89.5918459,61.0680846 89.5955119,60.4732363 L89.5955119,6.97247739 C89.5955119,6.04743687 88.8232958,5.29743798 87.8703713,5.29743798 Z M4.04579293,57.7931732 L4.04579293,8.64751681 L8.1688788,8.64751681 L8.1688788,50.6575053 C8.15809667,51.5825458 8.921687,52.3409199 9.87439586,52.3513889 C9.96755345,52.3524358 10.060711,52.3461544 10.1527904,52.3325447 C13.7216749,51.8034416 17.3248465,51.5235007 20.9349187,51.495025 C25.9356698,51.4108543 30.9155036,52.1411715 35.6676189,53.6558259 C24.9361665,52.3957775 14.0509611,53.8199797 4.04579293,57.7931732 Z M20.9349187,48.1616966 C17.7971037,48.1686061 14.6629547,48.3643764 11.5501542,48.7479604 L11.5501542,4.67767339 C14.9090029,3.95112505 18.3390135,3.5803132 21.7802376,3.57214738 C28.2322632,3.57214738 37.1339883,5.01268128 43.3099914,11.7798405 L43.3617456,53.5050723 C39.7734533,51.2270187 32.7693828,48.1616966 20.9349187,48.1616966 Z M46.8120267,11.7798405 C52.9880298,5.07968285 61.8897549,3.57214738 68.3417805,3.57214738 C71.782789,3.58198824 75.2127996,3.95259071 78.5718639,4.67767339 L78.5718639,48.7479604 C75.4765305,48.3608169 72.3596328,48.1593934 69.2388536,48.1449462 C57.4733952,48.1449462 50.4520732,51.2102683 46.8120267,53.4883219 L46.8120267,11.7798405 Z M86.1279794,57.7931732 C76.1014626,53.809092 65.1912426,52.3846803 54.4371478,53.6558259 C59.2116899,52.1357276 64.2152444,51.405201 69.2388536,51.495025 C72.8715683,51.5147067 76.4980293,51.7889944 80.0899875,52.3157943 C81.0319143,52.4546132 81.9115203,51.8256359 82.0544913,50.9110644 C82.0685081,50.8216592 82.0749774,50.731207 82.0738992,50.6407549 L82.0738992,8.64751681 L86.196985,8.64751681 L86.1279794,57.7931732 Z" id="Shape"></path>
                        </g>
                    </g>
                </g>
            </g>
        </g>
    </g>
</svg>