<?xml version="1.0" encoding="UTF-8"?>
<svg width="36px" height="33px" viewBox="0 0 36 33" version="1.1" xmlns="http://www.w3.org/2000/svg" xmlns:xlink="http://www.w3.org/1999/xlink">
    <!-- Generator: Sketch 52.6 (67491) - http://www.bohemiancoding.com/sketch -->
    <title>alert</title>
    <desc>Created with Sketch.</desc>
    <g id="Landing-Page" stroke="none" stroke-width="1" fill="none" fill-rule="evenodd">
        <g id="Features---Monitor" transform="translate(-1053.000000, -4809.000000)" fill="#ED1C24">
            <g id="Book-Integrations" transform="translate(2.000000, 4300.000000)">
                <g id="Benefits" transform="translate(723.000000, 134.000000)">
                    <g id="Learning-Insights" transform="translate(310.000000, 357.000000)">
                        <g id="alert" transform="translate(18.000000, 18.000000)">
                            <path d="M35.3571228,25.9213333 L21.6237895,2.13452632 C20.8601404,0.811859649 19.4923509,0.0221052632 17.9649123,0.0221052632 C16.4375439,0.0221052632 15.0696842,0.811859649 14.3060351,2.13452632 L0.57277193,25.9212632 C-0.190947368,27.2440702 -0.190947368,28.8234386 0.57277193,30.1461754 C1.33649123,31.4689123 2.70421053,32.2585965 4.23164912,32.2585965 L31.6981754,32.2585965 C33.2255439,32.2585965 34.5933333,31.4688421 35.3571228,30.1462456 C36.1208421,28.8234386 36.1208421,27.2440702 35.3571228,25.9213333 Z M33.5341053,29.0937544 C33.1508772,29.7574737 32.4645614,30.1536842 31.6981754,30.1536842 L4.23164912,30.1536842 C3.46519298,30.1536842 2.77887719,29.7574737 2.3957193,29.0937544 C2.0125614,28.4300351 2.0125614,27.637614 2.3957193,26.9738947 L16.1291228,3.18708772 C16.5122807,2.52336842 17.1985965,2.12715789 17.9649825,2.12715789 C18.7312982,2.12715789 19.4176842,2.52336842 19.8008421,3.18708772 L33.5341754,26.9738947 C33.9172632,27.637614 33.9172632,28.4300351 33.5341053,29.0937544 Z" id="Shape" fill-rule="nonzero"></path>
                            <rect id="Rectangle" x="16.9123509" y="10.5270175" width="2.10498246" height="10.5250526"></rect>
                            <path d="M17.9649123,23.157193 C17.1910877,23.157193 16.5615439,23.7867368 16.5615439,24.5605614 C16.5615439,25.334386 17.1910877,25.9639298 17.9649123,25.9639298 C18.7386667,25.9639298 19.3682807,25.334386 19.3682807,24.5605614 C19.3682807,23.7867368 18.7387368,23.157193 17.9649123,23.157193 Z" id="Path"></path>
                        </g>
                    </g>
                </g>
            </g>
        </g>
    </g>
</svg>