<?xml version="1.0" encoding="UTF-8"?>
<svg width="34px" height="19px" viewBox="0 0 34 19" version="1.1" xmlns="http://www.w3.org/2000/svg" xmlns:xlink="http://www.w3.org/1999/xlink">
    <!-- Generator: Sketch 52.6 (67491) - http://www.bohemiancoding.com/sketch -->
    <title>visits</title>
    <desc>Created with Sketch.</desc>
    <g id="Landing-Page" stroke="none" stroke-width="1" fill="none" fill-rule="evenodd">
        <g id="Features---Monitor" transform="translate(-735.000000, -3546.000000)" fill="#28A745">
            <g id="Engaging-Students-/-Individualized" transform="translate(0.000000, 2871.000000)">
                <g id="Benefits" transform="translate(716.000000, 276.000000)">
                    <g id="Saves-Time" transform="translate(0.000000, 373.000000)">
                        <g id="visits" transform="translate(19.000000, 26.000000)">
                            <path d="M33.7463281,8.36725391 C33.6700273,8.28185547 31.8422617,6.25221484 28.8830664,4.20510938 C24.9264492,1.46804297 20.8172969,0.0213164063 16.9999336,0.0213164063 C13.1825703,0.0213164063 9.07341797,1.46804297 5.11680078,4.20510938 C2.15753906,6.25221484 0.329839844,8.28185547 0.253539063,8.36725391 C-0.0845351562,8.74530469 -0.0845351562,9.3170625 0.253539063,9.69511328 C0.329839844,9.78051172 2.15760547,11.8101523 5.11680078,13.8572578 C9.07341797,16.5943242 13.1825703,18.0410508 16.9999336,18.0410508 C20.8172969,18.0410508 24.9264492,16.5943242 28.8830664,13.8572578 C31.8423281,11.8101523 33.6700273,9.78051172 33.7463281,9.69511328 C34.0844023,9.31699609 34.0844023,8.74530469 33.7463281,8.36725391 Z M6.29039844,12.2466406 C4.50167969,11.0138086 3.13583594,9.7675625 2.38571094,9.03158203 C3.67219922,7.77152344 6.77257422,5.01221094 10.7538945,3.35364844 C9.38851562,4.85436328 8.55518359,6.84728125 8.55518359,9.03118359 C8.55518359,11.2124297 9.38652344,13.2030898 10.7488477,14.703207 C9.01823437,13.9834961 7.49533984,13.0771836 6.29039844,12.2466406 Z M16.9999336,15.4837461 C13.4419531,15.4837461 10.5473047,12.5890977 10.5473047,9.03118359 C10.5473047,5.47320312 13.4419531,2.57862109 16.9999336,2.57862109 C20.5579141,2.57862109 23.4525625,5.47320312 23.4525625,9.03118359 C23.4525625,12.5891641 20.5579141,15.4837461 16.9999336,15.4837461 Z M23.2459727,14.7087187 C24.6113516,13.2080039 25.4446836,11.2150859 25.4446836,9.03111719 C25.4446836,6.84987109 24.6133438,4.85921094 23.2510195,3.35909375 C24.9816328,4.07880469 26.5045273,4.98511719 27.7094688,5.81566016 C29.4980547,7.04835937 30.8637656,8.29453906 31.6141563,9.03071875 C30.327668,10.2908438 27.227293,13.0501562 23.2459727,14.7087187 Z" id="Shape" fill-rule="nonzero"></path>
                            <path d="M16.9999336,5.82090625 C15.2298086,5.82090625 13.7896563,7.26105859 13.7896563,9.03118359 C13.7896563,10.8013086 15.2298086,12.2414609 16.9999336,12.2414609 C17.550043,12.2414609 17.9960273,11.7954766 17.9960273,11.2453672 C17.9960273,10.9703125 17.8845313,10.7212891 17.7042383,10.5409961 C17.5240117,10.3607695 17.2749883,10.2492734 16.9999336,10.2492734 C16.3283008,10.2492734 15.7818438,9.70281641 15.7818438,9.03118359 C15.7818438,8.35955078 16.3283008,7.81309375 16.9999336,7.81309375 C17.6715664,7.81309375 18.2180234,8.35955078 18.2180234,9.03118359 C18.2180234,9.30623828 18.3295195,9.55526172 18.5098125,9.73555469 C18.6900391,9.91578125 18.9390625,10.0272773 19.2141172,10.0272773 C19.7642266,10.0272773 20.2102109,9.58129297 20.2102109,9.03118359 C20.2102109,7.26105859 18.7700586,5.82090625 16.9999336,5.82090625 Z" id="Path"></path>
                        </g>
                    </g>
                </g>
            </g>
        </g>
    </g>
</svg>