<?xml version="1.0" encoding="UTF-8"?>
<svg width="22px" height="24px" viewBox="0 0 22 24" version="1.1" xmlns="http://www.w3.org/2000/svg" xmlns:xlink="http://www.w3.org/1999/xlink">
    <!-- Generator: Sketch 52.6 (67491) - http://www.bohemiancoding.com/sketch -->
    <title>Shape</title>
    <desc>Created with Sketch.</desc>
    <g id="Platform" stroke="none" stroke-width="1" fill="none" fill-rule="evenodd" stroke-linecap="round" stroke-linejoin="round">
        <g id="Administration---Schools---Students---2" transform="translate(-1212.000000, -208.000000)" stroke="#54676E" stroke-width="2">
            <g id="Filter-button" transform="translate(1196.000000, 193.000000)">
                <path d="M36.8001842,17.5304344 C37.0272316,17.2405915 37.0637528,16.8528063 36.8945217,16.5287521 C36.7252905,16.2046979 36.3793563,16 36.0009439,16 L17.9990561,16 C17.6206437,16 17.2747095,16.2046979 17.1054783,16.5287521 C16.9362472,16.8528063 16.9727684,17.2405915 17.1998158,17.5304344 L25.0004008,27.5653015 L25.0004008,37.043473 C25.0004008,37.4057766 25.2141999,37.7369847 25.5526622,37.8990118 C25.8911245,38.0610389 26.2961514,38.0260724 26.5988813,37.8086902 L28.5969819,36.3739079 C28.8485487,36.1932647 28.9966021,35.9097629 28.9966021,35.6086907 L28.9966021,27.5643449 L36.8001842,17.5304344 Z" id="Shape"></path>
            </g>
        </g>
    </g>
</svg>