<?xml version="1.0" encoding="UTF-8"?>
<svg width="72px" height="38px" viewBox="0 0 72 38" version="1.1" xmlns="http://www.w3.org/2000/svg" xmlns:xlink="http://www.w3.org/1999/xlink">
    <!-- Generator: Sketch 51.3 (57544) - http://www.bohemiancoding.com/sketch -->
    <title>gamepad</title>
    <desc>Created with Sketch.</desc>
    <defs></defs>
    <g id="Landing-page-mobile_Tablet" stroke="none" stroke-width="1" fill="none" fill-rule="evenodd">
        <g id="Landing-Page-V2-(Design-Sprint)-IRIS-" transform="translate(-157.000000, -1613.000000)" fill="#79C570" fill-rule="nonzero">
            <g id="Content" transform="translate(-42.000000, 220.000000)">
                <g id="Second-Section" transform="translate(175.000000, 1256.000000)">
                    <g id="Game" transform="translate(0.000000, 92.000000)">
                        <g id="gamepad" transform="translate(24.000000, 45.000000)">
                            <path d="M71.6167124,24.931195 L67.0241705,8.5781864 C66.1373872,5.41836223 63.9457415,2.75451294 61.0110315,1.26939278 C58.076181,-0.215867609 54.6257979,-0.407134147 51.5441345,0.745092497 C49.2910356,1.58826383 47.3776874,3.07043927 46.0122154,5.03007994 C46.0122154,5.03007994 46.0057467,5.03526825 45.9925279,5.03526825 L26.0789973,5.03526825 C26.0670441,5.03526825 26.060716,5.03106151 26.0601535,5.03106151 C24.6951034,3.0705795 22.7823177,1.58840405 20.5278125,0.744812048 C17.4460085,-0.406573249 13.9953442,-0.215727385 11.0607749,1.269533 C8.12676807,2.75451294 5.93526298,5.41836223 5.04847967,8.57790595 L0.455937755,24.9310547 C-1.06126889,30.3315299 1.30714286,35.5491521 6.08770084,37.3378588 C7.29089113,37.7876998 8.55539407,38 9.81610012,38 C13.9172971,37.9998598 17.9725097,35.7527584 19.7026231,32.1308937 L21.9062219,27.5323638 C23.2641001,29.346311 25.4277614,30.4717547 27.7762043,30.4717547 C30.9789461,30.4717547 33.7858277,28.3882956 34.7454549,25.4104831 L37.3191796,25.4104831 C38.2786662,28.3882956 41.084704,30.4717547 44.2868833,30.4717547 C46.6365919,30.4717547 48.8012375,29.3450489 50.1588344,27.5298397 L52.3677771,32.129211 C53.4815297,34.4605875 55.4175185,36.2771989 57.8189772,37.2440485 C60.2205766,38.2110382 62.8789577,38.2444117 65.3047446,37.3377186 C67.729969,36.4304645 69.7108174,34.6622306 70.882367,32.3588991 C72.0536353,30.0561286 72.3144953,27.4183611 71.6167124,24.931195 Z M68.2397358,31.0224172 C67.4044214,32.6643086 65.9925431,33.9247888 64.2642578,34.571365 C62.5354101,35.2173804 60.6403432,35.1936824 58.9283704,34.5044778 C57.2165383,33.815133 55.836582,32.520438 55.0413458,30.8558302 L51.9610886,24.4420911 C51.6219003,23.7357791 50.8954299,23.3080937 50.1104593,23.347637 C49.3284419,23.3890033 48.6542841,23.8907274 48.3931428,24.6257855 C47.7786102,26.3553174 46.128372,27.5173597 44.2870239,27.5173597 C42.2097066,27.5173597 40.4123743,26.045 40.0137015,24.0162286 C39.8359511,23.1121997 39.0374805,22.4559479 38.115119,22.4559479 L33.9502187,22.4559479 C33.0277165,22.4559479 32.2292459,23.1121997 32.0513549,24.016509 C31.6526821,26.045 29.8546467,27.5173597 27.776345,27.5173597 C25.9354188,27.5173597 24.2854619,26.355738 23.6705073,24.6267671 C23.4090848,23.8915688 22.7346457,23.3899849 21.9523471,23.348899 C21.1683609,23.3069719 20.4407654,23.7380227 20.1021396,24.4448956 L17.0286325,30.8584945 C15.4276132,34.2097254 10.8016024,35.9445858 7.12846888,34.571365 C3.76977358,33.3148112 2.19955118,29.6782229 3.30922563,25.7278117 L7.90190817,9.37424222 C8.57550349,6.97429588 10.1735697,5.03162241 12.4020593,3.90379487 C13.6644528,3.26493098 15.0190966,2.94311521 16.381756,2.94311521 C17.4249147,2.94311521 18.4729952,3.13157726 19.487607,3.51088516 C21.1751109,4.14245737 22.6063955,5.25065345 23.6264916,6.7158617 C24.1819616,7.51331976 25.0988387,7.98938274 26.0789973,7.98938274 L45.9923873,7.98938274 C46.9724052,7.98938274 47.889001,7.51374044 48.4441898,6.71684327 C49.4658328,5.25079367 50.8978205,4.14217692 52.5846213,3.51088516 C54.9246268,2.63616327 57.4409764,2.77554665 59.670169,3.90351442 C61.8989398,5.03134196 63.4972873,6.97415566 64.1708826,9.37424222 L68.7632839,25.7272508 C69.2609569,27.5002523 69.074769,29.380666 68.2397358,31.0224172 Z" id="Shape"></path>
                            <circle id="Oval" cx="56" cy="10" r="2"></circle>
                            <circle id="Oval" cx="56" cy="18" r="2"></circle>
                            <circle id="Oval" cx="51" cy="14" r="2"></circle>
                            <circle id="Oval" cx="61" cy="14" r="2"></circle>
                            <path d="M20.5413363,13.0413363 L17.9586637,13.0413363 L17.9586637,10.4586637 C17.9586637,9.65311029 17.3056919,9 16.5,9 C15.6944465,9 15.0413363,9.65297183 15.0413363,10.4586637 L15.0413363,13.0413363 L12.4586637,13.0413363 C11.6531103,13.0413363 11,13.6943081 11,14.5 C11,15.3055535 11.6529718,15.9586637 12.4586637,15.9586637 L15.0413363,15.9586637 L15.0413363,18.5413363 C15.0413363,19.3468897 15.6943081,20 16.5,20 C17.3055535,20 17.9586637,19.3470282 17.9586637,18.5413363 L17.9586637,15.9586637 L20.5413363,15.9586637 C21.3468897,15.9586637 22,15.3056919 22,14.5 C21.9998615,13.6943081 21.3468897,13.0413363 20.5413363,13.0413363 Z" id="Shape"></path>
                            <path d="M33.383905,12 L31.616095,12 C30.7235994,12 30,12.671476 30,13.5 C30,14.3283816 30.723446,15 31.616095,15 L33.383905,15 C34.2764006,15 35,14.328524 35,13.5 C34.9998466,12.671476 34.2764006,12 33.383905,12 Z" id="Shape"></path>
                            <path d="M41.383905,12 L39.616095,12 C38.7235994,12 38,12.671476 38,13.5 C38,14.3283816 38.723446,15 39.616095,15 L41.383905,15 C42.2764006,15 43,14.328524 43,13.5 C43,12.671476 42.2764006,12 41.383905,12 Z" id="Shape"></path>
                            <path d="M27.9999293,20 C26.3457323,20 25,21.3457323 25,22.9999293 C25,24.6542677 26.3457323,26 27.9999293,26 C29.6542677,26 31,24.6542677 31,22.9999293 C30.9998586,21.3457323 29.6541263,20 27.9999293,20 Z M27.9999293,23.7650803 C27.5781769,23.7650803 27.2349197,23.4219645 27.2349197,22.9999293 C27.2349197,22.5781769 27.5780355,22.2349197 27.9999293,22.2349197 C28.4218231,22.2349197 28.7650803,22.5780355 28.7650803,22.9999293 C28.7649388,23.4218231 28.4218231,23.7650803 27.9999293,23.7650803 Z" id="Shape"></path>
                            <path d="M44,20 C42.345764,20 41,21.3457323 41,22.9999293 C41,24.6542677 42.345764,26 44,26 C45.654236,26 47,24.6542677 47,22.9999293 C47,21.3457323 45.654236,20 44,20 Z M44,23.7650803 C43.5782377,23.7650803 43.2349724,23.4219645 43.2349724,22.9999293 C43.2349724,22.5781769 43.5780963,22.2349197 44,22.2349197 C44.4219037,22.2349197 44.7650276,22.5780355 44.7650276,22.9999293 C44.7650276,23.4218231 44.4219037,23.7650803 44,23.7650803 Z" id="Shape"></path>
                        </g>
                    </g>
                </g>
            </g>
        </g>
    </g>
</svg>