<?xml version="1.0" encoding="UTF-8"?>
<svg width="101px" height="54px" viewBox="0 0 101 54" version="1.1" xmlns="http://www.w3.org/2000/svg" xmlns:xlink="http://www.w3.org/1999/xlink">
    <!-- Generator: Sketch 52.6 (67491) - http://www.bohemiancoding.com/sketch -->
    <title>gamepad</title>
    <desc>Created with Sketch.</desc>
    <g id="Landing-Page" stroke="none" stroke-width="1" fill="none" fill-rule="evenodd">
        <g id="Pricing-#1" transform="translate(-72.000000, -1540.000000)" fill="#79C570" fill-rule="nonzero">
            <g id="Schools-Section" transform="translate(-15.000000, 1141.000000)">
                <g transform="translate(87.000000, 375.000000)" id="Game">
                    <g>
                        <g id="gamepad" transform="translate(0.000000, 24.000000)">
                            <path d="M100.392189,35.6501986 L94.0136583,12.8420551 C92.7820148,8.43493191 89.7380624,4.71956317 85.6620764,2.64821136 C81.5858951,0.576663977 76.7936964,0.309897489 72.5136084,1.91695044 C69.3843042,3.09295256 66.7268762,5.16019726 64.8303874,7.89338029 C64.8303874,7.89338029 64.821403,7.90061663 64.8030436,7.90061663 L37.1453622,7.90061663 C37.1287606,7.90061663 37.1199715,7.89474933 37.1191902,7.89474933 C35.2232874,5.16039284 32.5666406,3.09314814 29.4353833,1.91655929 C25.1550999,0.310679796 20.3625107,0.576859553 16.28672,2.64840694 C12.2117105,4.71956317 9.16795343,8.43493191 7.93630995,12.8416639 L1.55777951,35.650003 C-0.549451949,43.1822448 2.74000882,50.4594546 9.37967267,52.9542298 C11.0507703,53.5816395 12.8070244,53.8777425 14.558005,53.8777425 C20.254112,53.8775469 25.8863516,50.7434318 28.2892869,45.6918837 L31.3498409,39.2781446 C33.2357828,41.8081235 36.2408679,43.3778214 39.5025942,43.3778214 C43.9508467,43.3778214 47.8492933,40.4719442 49.1821089,36.3186794 L52.7567265,36.3186794 C54.0893468,40.4719442 57.9866215,43.3778214 62.4340928,43.3778214 C65.6975769,43.3778214 68.7040292,41.8063634 70.5895805,39.2746242 L73.6575563,45.6895368 C75.2044349,48.9411934 77.8933084,51.4748883 81.2286677,52.823389 C84.5642223,54.1720853 88.2564184,54.2186325 91.6255668,52.9540342 C94.993934,51.6886536 97.7451123,49.2224326 99.3722645,46.0098913 C100.999026,42.7981323 101.361332,39.1191408 100.392189,35.6501986 Z M95.7019435,44.1458507 C94.5417845,46.4358571 92.5808425,48.1938952 90.1804463,49.095699 C87.7792688,49.9967204 85.1472315,49.9636679 82.7694916,49.0024089 C80.391947,48.0409543 78.475341,46.2351955 77.3708462,43.9135057 L73.0927113,34.9680274 C72.6216164,33.9829081 71.6126297,33.3863994 70.5223928,33.441552 C69.4362575,33.4992471 68.4999272,34.1990202 68.137231,35.2242328 C67.2837134,37.6364746 64.9917159,39.2572179 62.4342881,39.2572179 C59.5491251,39.2572179 57.0528303,37.2036636 56.499118,34.3740613 C56.2522425,33.1131789 55.1432555,32.1978804 53.8621979,32.1978804 L48.0776141,32.1978804 C46.7963611,32.1978804 45.6873742,33.1131789 45.4403033,34.3744524 C44.8865911,37.2036636 42.3893197,39.2572179 39.5027895,39.2572179 C36.9459476,39.2572179 34.6543408,37.6370613 33.8002372,35.2256018 C33.4371504,34.2001937 32.5004295,33.5006162 31.4139035,33.4433122 C30.3250338,33.3848348 29.3144846,33.9860373 28.844171,34.9719389 L24.5754111,43.9172216 C22.3517731,48.5913069 15.9267582,51.0109806 10.8251838,49.095699 C6.16032926,47.343137 3.97946482,42.2710534 5.52067934,36.7612693 L11.8994051,13.9523435 C12.8349541,10.6050499 15.0544905,7.89553164 18.1496149,6.32250901 C19.9029393,5.43146201 21.784389,4.9826137 23.6769715,4.9826137 C25.125803,4.9826137 26.5814704,5.24546866 27.9906534,5.77450337 C30.3344088,6.65538039 32.3223041,8.20102229 33.7391043,10.2446022 C34.5105904,11.3568464 35.7840309,12.0208289 37.1453622,12.0208289 L64.8028483,12.0208289 C66.1639842,12.0208289 67.4370341,11.3574331 68.2081296,10.2459713 C69.6270782,8.20121787 71.61595,6.65498924 73.9587289,5.77450337 C77.2087365,4.55449652 80.7036665,4.74889966 83.7997674,6.32211786 C86.8952824,7.89514048 89.1152094,10.6048543 90.0507585,13.9523435 L96.4290936,36.760487 C97.1203061,39.2333576 96.8617118,41.8560398 95.7019435,44.1458507 Z" id="Shape"></path>
                            <circle id="Oval" cx="79.4245326" cy="14.3777425" r="2.5"></circle>
                            <circle id="Oval" cx="79.4245326" cy="26.3777425" r="2.5"></circle>
                            <circle id="Oval" cx="71.4245326" cy="21.3777425" r="2.5"></circle>
                            <circle id="Oval" cx="85.4245326" cy="21.3777425" r="2.5"></circle>
                            <path d="M29.9354457,19.7560498 L26.4136196,19.7560498 L26.4136196,15.9994352 C26.4136196,14.8277211 25.5232034,13.8777425 24.4245326,13.8777425 C23.3260506,13.8777425 22.4354457,14.8275197 22.4354457,15.9994352 L22.4354457,19.7560498 L18.9136196,19.7560498 C17.8151376,19.7560498 16.9245326,20.705827 16.9245326,21.8777425 C16.9245326,23.0494566 17.8149488,23.9994352 18.9136196,23.9994352 L22.4354457,23.9994352 L22.4354457,27.7560498 C22.4354457,28.9277639 23.3258618,29.8777425 24.4245326,29.8777425 C25.5230146,29.8777425 26.4136196,28.9279653 26.4136196,27.7560498 L26.4136196,23.9994352 L29.9354457,23.9994352 C31.0339277,23.9994352 31.9245326,23.049658 31.9245326,21.8777425 C31.9243438,20.705827 31.0339277,19.7560498 29.9354457,19.7560498 Z" id="Shape"></path>
                            <path d="M46.9852186,16.8777425 L44.8638466,16.8777425 C43.7928519,16.8777425 42.9245326,17.9968692 42.9245326,19.3777425 C42.9245326,20.7583785 43.7926679,21.8777425 44.8638466,21.8777425 L46.9852186,21.8777425 C48.0562133,21.8777425 48.9245326,20.7586158 48.9245326,19.3777425 C48.9243485,17.9968692 48.0562133,16.8777425 46.9852186,16.8777425 Z" id="Shape"></path>
                            <path d="M58.9852186,16.8777425 L56.8638466,16.8777425 C55.7928519,16.8777425 54.9245326,17.9968692 54.9245326,19.3777425 C54.9245326,20.7583785 55.7926679,21.8777425 56.8638466,21.8777425 L58.9852186,21.8777425 C60.0562133,21.8777425 60.9245326,20.7586158 60.9245326,19.3777425 C60.9245326,17.9968692 60.0562133,16.8777425 58.9852186,16.8777425 Z" id="Shape"></path>
                            <path d="M40.9244383,27.8777425 C38.7188423,27.8777425 36.9245326,29.6720522 36.9245326,31.8776482 C36.9245326,34.0834328 38.7188423,35.8777425 40.9244383,35.8777425 C43.1302229,35.8777425 44.9245326,34.0834328 44.9245326,31.8776482 C44.924344,29.6720522 43.1300344,27.8777425 40.9244383,27.8777425 Z M40.9244383,32.8978495 C40.3621019,32.8978495 39.9044256,32.4403618 39.9044256,31.8776482 C39.9044256,31.3153117 40.3619133,30.8576355 40.9244383,30.8576355 C41.4869634,30.8576355 41.9446396,31.3151232 41.9446396,31.8776482 C41.9444511,32.4401732 41.4869634,32.8978495 40.9244383,32.8978495 Z" id="Shape"></path>
                            <path d="M61.9245326,27.8777425 C59.7188846,27.8777425 57.9245326,29.6720522 57.9245326,31.8776482 C57.9245326,34.0834328 59.7188846,35.8777425 61.9245326,35.8777425 C64.1301806,35.8777425 65.9245326,34.0834328 65.9245326,31.8776482 C65.9245326,29.6720522 64.1301806,27.8777425 61.9245326,27.8777425 Z M61.9245326,32.8978495 C61.3621829,32.8978495 60.9044959,32.4403618 60.9044959,31.8776482 C60.9044959,31.3153117 61.3619943,30.8576355 61.9245326,30.8576355 C62.4870709,30.8576355 62.9445694,31.3151232 62.9445694,31.8776482 C62.9445694,32.4401732 62.4870709,32.8978495 61.9245326,32.8978495 Z" id="Shape"></path>
                        </g>
                    </g>
                </g>
            </g>
        </g>
    </g>
</svg>