<?xml version="1.0" encoding="UTF-8"?>
<svg width="76px" height="83px" viewBox="0 0 76 83" version="1.1" xmlns="http://www.w3.org/2000/svg" xmlns:xlink="http://www.w3.org/1999/xlink">
    <!-- Generator: Sketch 52.6 (67491) - http://www.bohemiancoding.com/sketch -->
    <title>headphone</title>
    <desc>Created with Sketch.</desc>
    <g id="Landing-Page" stroke="none" stroke-width="1" fill="none" fill-rule="evenodd">
        <g id="Pricing-#1" transform="translate(-793.000000, -1535.000000)" fill="#FFCB05" fill-rule="nonzero">
            <g id="Schools-Section" transform="translate(-15.000000, 1141.000000)">
                <g transform="translate(87.000000, 375.000000)" id="Dedicated-support">
                    <g transform="translate(721.000000, 0.000000)">
                        <g id="headphone" transform="translate(0.000000, 19.000000)">
                            <path d="M70.9333333,33.4293677 L69.6666667,33.4293677 C69.6584043,31.5761363 68.5768417,29.9426777 66.994,29.3929019 C65.5299297,12.714807 52.9876799,0 38,0 C23.0123201,0 10.4700703,12.714807 9.006,29.3929019 C7.42315825,29.9426777 6.34159565,31.5761363 6.33333333,33.4293677 L5.06666667,33.4293677 C2.26842393,33.4293677 0,35.9657709 0,39.0945828 L0,50.425013 C0,53.553825 2.26842393,56.0902282 5.06666667,56.0902282 L6.33333333,56.0902282 C6.33333333,58.436837 8.03465128,60.3391395 10.1333333,60.3391395 L11.4,60.3391395 L11.4,66.0043546 C11.4,73.0441814 16.5039539,78.7510887 22.8,78.7510887 L26.7773333,78.7510887 C27.3533907,81.2457702 29.3624011,82.9916336 31.6666667,83 L44.3333333,83 C47.1315761,83 49.4,80.4635968 49.4,77.3347849 C49.4,74.205973 47.1315761,71.6695698 44.3333333,71.6695698 L31.6666667,71.6695698 C29.3624011,71.6779361 27.3533907,73.4237995 26.7773333,75.9184811 L22.8,75.9184811 C17.9030753,75.9184811 13.9333333,71.4797754 13.9333333,66.0043546 L13.9333333,60.3391395 L15.2,60.3391395 C17.298682,60.3391395 19,58.436837 19,56.0902282 L19,33.4293677 C18.9984027,31.6968079 18.0561432,30.1388648 16.6186667,29.4920432 C17.9120426,17.3852537 27.0953584,8.27061937 38,8.27061937 C48.9046416,8.27061937 58.0879574,17.3852537 59.3813333,29.4920432 C57.9438568,30.1388648 57.0015973,31.6968079 57,33.4293677 L57,56.0902282 C57,58.436837 58.701318,60.3391395 60.8,60.3391395 L65.8666667,60.3391395 C67.9653487,60.3391395 69.6666667,58.436837 69.6666667,56.0902282 L70.9333333,56.0902282 C73.7315761,56.0902282 76,53.553825 76,50.425013 L76,39.0945828 C76,35.9657709 73.7315761,33.4293677 70.9333333,33.4293677 Z M31.6666667,74.5021773 L44.3333333,74.5021773 C45.7324547,74.5021773 46.8666667,75.7703789 46.8666667,77.3347849 C46.8666667,78.8991908 45.7324547,80.1673924 44.3333333,80.1673924 L31.6666667,80.1673924 C30.2675453,80.1673924 29.1333333,78.8991908 29.1333333,77.3347849 C29.1333333,75.7703789 30.2675453,74.5021773 31.6666667,74.5021773 Z M5.06666667,53.2576206 C3.6675453,53.2576206 2.53333333,51.989419 2.53333333,50.425013 L2.53333333,39.0945828 C2.53333333,37.5301768 3.6675453,36.2619752 5.06666667,36.2619752 L6.33333333,36.2619752 L6.33333333,53.2576206 L5.06666667,53.2576206 Z M16.4666667,56.0902282 C16.4666667,56.8724311 15.8995606,57.5065319 15.2,57.5065319 L10.1333333,57.5065319 C9.43377265,57.5065319 8.86666667,56.8724311 8.86666667,56.0902282 L8.86666667,33.4293677 C8.86666667,32.6471648 9.43377265,32.0130639 10.1333333,32.0130639 L15.2,32.0130639 C15.8995606,32.0130639 16.4666667,32.6471648 16.4666667,33.4293677 L16.4666667,56.0902282 Z M38,5.10329205 C25.7008706,5.12098541 15.3926361,15.5047631 14.098,29.1804563 L11.5646667,29.1804563 C13.0697254,14.126633 24.4527985,2.74237769 38,2.74237769 C51.5472015,2.74237769 62.9302746,14.126633 64.4353333,29.1804563 L61.902,29.1804563 C60.6073639,15.5047631 50.2991294,5.12098541 38,5.10329205 Z M67.1333333,56.0902282 C67.1333333,56.8724311 66.5662273,57.5065319 65.8666667,57.5065319 L60.8,57.5065319 C60.1004394,57.5065319 59.5333333,56.8724311 59.5333333,56.0902282 L59.5333333,33.4293677 C59.5333333,32.6471648 60.1004394,32.0130639 60.8,32.0130639 L65.8666667,32.0130639 C66.5662273,32.0130639 67.1333333,32.6471648 67.1333333,33.4293677 L67.1333333,56.0902282 Z M73.4666667,50.425013 C73.4666667,51.989419 72.3324547,53.2576206 70.9333333,53.2576206 L69.6666667,53.2576206 L69.6666667,36.2619752 L70.9333333,36.2619752 C72.3324547,36.2619752 73.4666667,37.5301768 73.4666667,39.0945828 L73.4666667,50.425013 Z" id="Shape"></path>
                        </g>
                    </g>
                </g>
            </g>
        </g>
    </g>
</svg>