<?xml version="1.0" encoding="UTF-8"?>
<svg width="76px" height="59px" viewBox="0 0 76 59" version="1.1" xmlns="http://www.w3.org/2000/svg" xmlns:xlink="http://www.w3.org/1999/xlink">
    <!-- Generator: Sketch 52.6 (67491) - http://www.bohemiancoding.com/sketch -->
    <title>analytics</title>
    <desc>Created with Sketch.</desc>
    <g id="Landing-Page" stroke="none" stroke-width="1" fill="none" fill-rule="evenodd">
        <g id="Pricing-#1" transform="translate(-87.000000, -1854.000000)" fill="#9B59B6" fill-rule="nonzero">
            <g id="Schools-Section" transform="translate(-15.000000, 1141.000000)">
                <g transform="translate(87.000000, 375.000000)" id="Monitor">
                    <g transform="translate(15.000000, 306.000000)">
                        <g id="analytics" transform="translate(0.000000, 32.000000)">
                            <path d="M9,45 C4.09083355,45 0,48.1817594 0,52 C0,55.8182406 4.09083355,59 9,59 C13.9091665,59 18,55.8182406 18,52 C18,48.1817594 13.9090003,45 9,45 Z M9,56.4544632 C5.89086679,56.4544632 3.27283303,54.4180855 3.27283303,51.9998707 C3.27283303,49.581656 5.89103298,47.5454075 9,47.5454075 C12.1091332,47.5454075 14.7273332,49.5817853 14.7273332,51.9998707 C14.727167,54.4180855 12.108967,56.4544632 9,56.4544632 Z" id="Shape"></path>
                            <path d="M24.5,21 C20.9405136,21 18,23.4881269 18,26.5 C18,29.5118731 20.9405136,32 24.5,32 C28.0594864,32 31,29.5118731 31,26.5 C31,23.4881269 28.0594864,21 24.5,21 Z M24.5,29.381003 C22.6427673,29.381003 21.0951782,28.0715046 21.0951782,26.5 C21.0951782,24.9284954 22.6427673,23.618997 24.5,23.618997 C26.3570755,23.618997 27.9048218,24.9284954 27.9048218,26.5 C27.9048218,28.0715046 26.3572327,29.381003 24.5,29.381003 Z" id="Shape"></path>
                            <path d="M40.5,43 C36.9405136,43 34,45.4881269 34,48.5 C34,51.5118731 36.9405136,54 40.5,54 C44.0594864,54 47,51.5118731 47,48.5 C47,45.4879939 44.0594864,43 40.5,43 Z M40.5,51.381003 C38.6429245,51.381003 37.0953354,50.0715046 37.0953354,48.5 C37.0953354,46.9284954 38.6429245,45.618997 40.5,45.618997 C42.3570755,45.618997 43.9046646,46.9284954 43.9046646,48.5 C43.9048218,50.0715046 42.3570755,51.381003 40.5,51.381003 Z" id="Shape"></path>
                            <path d="M50.5,18 C46.9405136,18 44,20.4881269 44,23.5 C44,26.5118731 46.9405136,29 50.5,29 C54.0594864,29 57,26.5118731 57,23.5 C57,20.4881269 54.0594864,18 50.5,18 Z M50.5,26.381003 C48.6429245,26.381003 47.0953354,25.0715046 47.0953354,23.5 C47.0953354,21.9286284 48.6429245,20.618997 50.5,20.618997 C52.3570755,20.618997 53.9046646,21.9284954 53.9046646,23.5 C53.9046646,25.0715046 52.3570755,26.381003 50.5,26.381003 Z" id="Shape"></path>
                            <path d="M69.5,0 C65.9405136,0 63,2.4881269 63,5.5 C63,8.5118731 65.9405136,11 69.5,11 C73.0594864,11 76,8.5118731 76,5.5 C75.9998428,2.4881269 73.0594864,0 69.5,0 Z M69.5,8.38100305 C67.6429245,8.38100305 66.0953354,7.07150457 66.0953354,5.5 C66.0953354,3.92862843 67.6429245,2.61899695 69.5,2.61899695 C71.3572327,2.61899695 72.9048218,3.92849543 72.9048218,5.5 C72.9046646,7.07150457 71.3570755,8.38100305 69.5,8.38100305 Z" id="Shape"></path>
                            <polygon id="Rectangle-path" transform="translate(16.321311, 39.049581) rotate(-63.058295) translate(-16.321311, -39.049581) " points="6.01317643 36.2186489 26.3142217 38.2150727 26.6294465 41.8805123 6.32840123 39.8840886"></polygon>
                            <polygon id="Rectangle-path" transform="translate(34.174349, 37.526972) rotate(-37.748851) translate(-34.174349, -37.526972) " points="31.40035 28.4375037 34.9335016 28.8152874 36.9483482 46.6164407 33.4151966 46.2386569"></polygon>
                            <polygon id="Rectangle-path" transform="translate(46.088770, 36.824079) rotate(-76.279191) translate(-46.088770, -36.824079) " points="38.6049867 34.4536625 55.0803136 35.4127524 55.260143 39.1944965 36.9173965 38.0301176"></polygon>
                            <polygon id="Rectangle-path" transform="translate(59.734409, 14.388147) rotate(-45.474044) translate(-59.734409, -14.388147) " points="51.0498528 11.8859405 67.8514339 13.0419332 68.4189659 16.8903533 51.2711147 16.1284977"></polygon>
                        </g>
                    </g>
                </g>
            </g>
        </g>
    </g>
</svg>