<?xml version="1.0" encoding="UTF-8"?>
<svg width="30px" height="30px" viewBox="0 0 30 30" version="1.1" xmlns="http://www.w3.org/2000/svg" xmlns:xlink="http://www.w3.org/1999/xlink">
    <!-- Generator: Sketch 52.6 (67491) - http://www.bohemiancoding.com/sketch -->
    <title>star</title>
    <desc>Created with Sketch.</desc>
    <g id="Landing-Page" stroke="none" stroke-width="1" fill="none" fill-rule="evenodd">
        <g id="Features---Book" transform="translate(-1056.000000, -6166.000000)" fill="#F26523" fill-rule="nonzero">
            <g id="Game-integration" transform="translate(2.000000, 5586.000000)">
                <g id="Benefits" transform="translate(723.000000, 74.000000)">
                    <g id="Learning-Insights" transform="translate(310.000000, 486.000000)">
                        <g id="star" transform="translate(21.000000, 20.000000)">
                            <path d="M29.1789846,14.6440545 C30.7886979,13.0686561 29.8977981,10.3289399 27.6675895,10.0053034 L20.5429103,9.24667405 C20.5191217,9.2422198 20.4580097,9.1977945 20.4263697,9.13338368 L17.4098491,1.59520805 C16.9176716,0.592415423 16.0344474,0.0463593787 15.0589399,0 C13.9632005,0.0463007701 13.079156,0.592884292 12.628462,1.50764685 L9.53448202,9.2196555 C9.54145454,9.19703259 9.47928783,9.24216119 9.40639869,9.25282795 L2.37769409,9.9993253 C0.0987951542,10.3291157 -0.79181172,13.0720554 0.821944499,14.6469263 L5.99045259,19.749447 C6.04728737,19.8050665 6.07125173,19.8790305 6.05871292,19.9526429 L4.88281888,26.8128346 C4.50126415,29.0357404 6.83465416,30.7312863 8.83049244,29.6810794 C12.9408189,27.5200056 15.0006403,26.4405529 15.0098979,26.4426628 L21.1677999,29.6811966 C23.1643999,30.7306416 25.4958564,29.0365023 25.1165868,26.8137723 L23.938935,19.950826 C23.9267477,19.8792649 23.9504777,19.8062387 24.0032696,19.754839 L29.1789846,14.6440545 Z M21.4747078,20.372163 L22.6524768,27.2356954 C22.6831793,27.4157409 22.4937495,27.5533539 22.3309208,27.4677267 L16.1713196,24.2283139 C15.8304867,24.0498508 15.4658652,23.9559012 15.0843105,23.9299962 L14.9154467,23.9299376 C14.5317241,23.9558426 14.1660479,24.0500266 13.8268556,24.2288413 L7.66690284,27.4677853 C7.50495302,27.5530022 7.31587483,27.4156237 7.34675311,27.2356954 L8.5229987,20.3736868 C8.67328861,19.4901627 8.38196642,18.5914588 7.74266302,17.9658124 L2.57292449,12.8621195 C2.43640383,12.7289022 2.50870704,12.5061897 2.6893479,12.4799916 L9.71940013,11.7332598 C10.6535999,11.597581 11.4184671,11.0418545 11.8153145,10.2387413 L14.9098804,2.52544327 C14.9077711,2.53810272 14.9658949,2.50217567 15.0587641,2.49778003 C15.0324561,2.50217567 15.091576,2.53868881 15.1294267,2.61517299 L18.1442482,10.1498907 C18.5778917,11.040741 19.3435207,11.5974638 20.2299089,11.7271059 L27.3559357,12.4859697 C27.4892338,12.5062483 27.561537,12.7289022 27.4248992,12.8622367 L22.252524,17.9697977 C21.6166775,18.5897592 21.3244764,19.4891663 21.4747078,20.372163 Z" id="Shape"></path>
                        </g>
                    </g>
                </g>
            </g>
        </g>
    </g>
</svg>