<?xml version="1.0" encoding="UTF-8"?>
<svg width="74px" height="87px" viewBox="0 0 74 87" version="1.1" xmlns="http://www.w3.org/2000/svg" xmlns:xlink="http://www.w3.org/1999/xlink">
    <!-- Generator: Sketch 52.6 (67491) - http://www.bohemiancoding.com/sketch -->
    <title>checklist</title>
    <desc>Created with Sketch.</desc>
    <g id="Landing-Page" stroke="none" stroke-width="1" fill="none" fill-rule="evenodd">
        <g id="Schools" transform="translate(-789.000000, -4627.000000)" fill="#9B59B6">
            <g id="Schools-Section" transform="translate(-15.000000, 4079.000000)">
                <g transform="translate(112.000000, 334.000000)" id="Learning-Resources">
                    <g transform="translate(692.000000, 196.000000)">
                        <g id="checklist" transform="translate(0.000000, 18.000000)">
                            <path d="M49,29.5 C49,28.6716 48.4143298,28 47.6915321,28 L31.3084679,28 C30.5858447,28 30,28.6716 30,29.5 C30,30.3284 30.5858447,31 31.3084679,31 L47.6915321,31 C48.4141553,31 49,30.3284 49,29.5 Z" id="Path"></path>
                            <path d="M12,51.6984549 C12,53.5190231 13.5266432,55 15.4029673,55 L23.0271074,55 C24.9034316,55 26.4300748,53.518857 26.4300748,51.6984549 L26.4300748,44.3359362 L27.623819,43.1777704 C28.1253937,42.6911447 28.1253937,41.9021432 27.623819,41.4156837 C27.1222444,40.9288918 26.309005,40.929058 25.8076016,41.4156837 L25.3306862,41.8783851 C24.7239675,41.3351055 23.916208,41 23.0272787,41 L15.4031386,41 C13.5266432,41 12.0001712,42.481143 12.0001712,44.3015451 L12.0001712,51.6984549 L12,51.6984549 Z M14.568665,44.3015451 C14.568665,43.8552916 14.9430051,43.4921083 15.4029673,43.4921083 L23.0271074,43.4921083 C23.207599,43.4921083 23.373706,43.5494268 23.5103589,43.6442931 L19.5612934,47.4756604 L18.6509586,46.5924572 C18.1493839,46.1058315 17.3361446,46.1058315 16.8347412,46.5924572 C16.3331665,47.0790829 16.3331665,47.8680844 16.8347412,48.3545439 L18.653356,50.1189566 C18.9040577,50.3623526 19.2328468,50.4839674 19.5614647,50.4839674 C19.8900825,50.4839674 20.2188717,50.3623526 20.4695734,50.1189566 L23.8615811,46.8280445 L23.8615811,51.6984549 C23.8615811,52.1448746 23.487241,52.5078917 23.0272787,52.5078917 L15.4031386,52.5078917 C14.9430051,52.5078917 14.5688362,52.1447084 14.5688362,51.6984549 L14.5688362,44.3015451 L14.568665,44.3015451 Z" id="Shape" fill-rule="nonzero"></path>
                            <path d="M32.216767,47 C31.5447872,47 31,47.6716 31,48.5 C31,49.3284 31.5447872,50 32.216767,50 L37.783233,50 C38.4553751,50 39,49.3284 39,48.5 C39,47.6716 38.4553751,47 37.783233,47 L32.216767,47 Z" id="Path"></path>
                            <path d="M12,69.6984157 C12,71.5190055 13.481143,73 15.3015451,73 L22.6984549,73 C24.518857,73 26,71.5188394 26,69.6984157 L26,62.3015843 C26,60.4809945 24.518857,59 22.6984549,59 L15.3015451,59 C13.4809769,59 12,60.4811606 12,62.3015843 L12,69.6984157 Z M14.4921083,62.3014181 C14.4921083,61.8549932 14.8552916,61.4919718 15.3015451,61.4919718 L22.6984549,61.4919718 C23.1447084,61.4919718 23.5078917,61.8551593 23.5078917,62.3014181 L23.5078917,69.6982496 C23.5078917,70.1446745 23.1447084,70.507696 22.6984549,70.507696 L15.3015451,70.507696 C14.8551254,70.507696 14.4921083,70.1445084 14.4921083,69.6982496 L14.4921083,62.3014181 Z" id="Shape" fill-rule="nonzero"></path>
                            <path d="M73.9997292,29.8122832 C73.9947946,28.5803496 73.5140912,27.061248 72.3939248,25.9453711 C70.3594861,23.7907617 66.3952574,23.811832 64.3170875,26.280627 L64.3170875,10.7883398 C64.3170875,7.89508008 61.9598544,5.54115234 59.0625319,5.54115234 L46.9191996,5.54115234 L46.9191996,3.03701367 C46.9193697,1.36243359 45.555023,0 43.8780915,0 L20.4396767,0 C18.7627452,0 17.3982283,1.36243359 17.3982283,3.03701367 L17.3982283,5.54115234 L5.25455558,5.54115234 C2.35723311,5.54115234 0,7.89508008 0,10.7883398 L0,81.7528125 C0,84.6460723 2.35723311,87 5.25455558,87 L59.0627021,87 C61.9600246,87 64.3172577,84.6460723 64.3172577,81.7528125 L64.3172577,47.8460918 C64.3172577,47.1422754 63.746029,46.5716777 63.0410541,46.5716777 C62.3360792,46.5716777 61.7648505,47.1422754 61.7648505,47.8460918 L61.7648505,81.7528125 C61.7648505,83.2406484 60.5526273,84.4511719 59.0627021,84.4511719 L5.25455558,84.4511719 C3.76463043,84.4511719 2.55240718,83.2406484 2.55240718,81.7528125 L2.55240718,10.7883398 C2.55240718,9.30050391 3.76463043,8.08998047 5.25455558,8.08998047 L12.7656093,8.08998047 L12.7656093,10.7470488 C12.6903983,13.8506719 15.7982093,16.6832695 19.0935371,16.0411348 L30.8676213,13.9492266 C31.7162116,13.7985059 32.5767131,13.7985059 33.424793,13.9488867 L45.225252,16.0424941 C48.1794081,16.699582 51.6722922,14.0465918 51.5521589,10.7482383 L51.5521589,8.08998047 L56.6806256,8.08998047 L56.6806256,33.9074004 L35.3522007,55.2069375 C34.1239824,56.3574785 33.1190146,57.7452305 32.5610584,59.6597402 L30.8470319,65.867666 C30.7993869,66.4098867 30.8378432,67.6652695 32.4165921,67.4350254 L38.6317036,65.7237422 C40.1866301,65.3286738 41.920225,64.225541 43.0921202,62.9395723 L56.6802852,49.3696113 L56.6802852,79.0510547 C56.6802852,79.2281133 56.5359892,79.372207 56.3585118,79.372207 L7.96010719,79.372207 C7.78279997,79.372207 7.63850388,79.2281133 7.63850388,79.0510547 L7.63850388,12.8263828 C7.63850388,12.1225664 7.067105,11.5519687 6.36230029,11.5519687 C5.65749559,11.5519687 5.0860967,12.1225664 5.0860967,12.8263828 L5.0860967,79.0510547 C5.0860967,80.6335371 6.37540265,81.9210352 7.96010719,81.9210352 L56.3588521,81.9210352 C57.9435566,81.9210352 59.2330327,80.6335371 59.2330327,79.0510547 L59.2330327,46.8206133 L72.3954562,33.6766465 L72.3952861,33.6766465 C73.2758666,32.846918 74.0162348,31.2455742 73.9997292,29.8122832 Z M19.9506355,3.03701367 C19.9506355,2.76785742 20.1699723,2.54882812 20.4396767,2.54882812 L43.8780915,2.54882812 C44.1476257,2.54882812 44.3669625,2.76785742 44.3669625,3.03701367 L44.3669625,5.54115234 L19.9506355,5.54115234 L19.9506355,3.03701367 Z M48.9995816,10.7480684 C49.0252758,12.273457 47.4963839,13.8691934 45.6715829,13.532748 L33.8711239,11.4391406 C33.2992145,11.3376973 32.7230511,11.2868906 32.1468878,11.2868906 C31.5700437,11.2868906 30.9931997,11.3376973 30.4202694,11.4394805 L18.6465256,13.5315586 C17.1465609,13.8241641 15.3057649,12.599707 15.3180164,10.7470488 L15.3179556,8.09032031 L48.9999008,8.09032031 L48.9995816,10.7480684 Z M70.5902237,31.8737754 L66.8198078,35.6390742 L62.6878009,31.5128613 L66.458387,27.7473926 C67.4577395,26.7465527 69.3558796,26.5225957 70.5885221,27.7473926 C71.5152161,28.6753359 71.8846345,30.5947734 70.5902237,31.8737754 Z M42.1897592,60.2361152 L38.0577523,56.1099023 L60.8830789,33.3153926 L65.0150858,37.4416055 L42.1897592,60.2361152 Z M59.2328626,8.09864648 C60.643493,8.18700586 61.7648505,9.3579375 61.7648505,10.7885098 L61.7648505,28.8294551 L59.2328626,31.3585723 L59.2328626,8.09864648 Z M35.0215789,60.3373887 C35.1092115,60.1290645 35.2892413,59.1348516 36.2754915,57.9346934 L40.3607042,62.0141777 C39.4030411,63.1042266 35.3794264,63.9412617 33.905156,64.3811895 L35.0215789,60.3373887 Z" id="Shape" fill-rule="nonzero"></path>
                            <path d="M27.6236687,22.3637705 C27.1220934,21.8786604 26.3088529,21.878826 25.8074489,22.3637705 L25.2769332,22.8766958 C24.6763785,22.3631082 23.8900235,22.0483661 23.0271222,22.0483661 L15.4029719,22.0483661 C13.526474,22.0483661 12,23.5243922 12,25.3385053 L12,32.7098608 C12,34.5239739 13.5266453,36 15.4029719,36 L23.0271222,36 C24.9034488,36 26.4300941,34.5239739 26.4300941,32.7098608 L26.4300941,25.3385053 C26.4300941,25.3178095 26.4273542,25.2976104 26.4268404,25.2770801 L27.6238399,24.1197697 C28.1254152,23.6349907 28.1254152,22.848715 27.6236687,22.3637705 Z M23.8614257,32.7098608 C23.8614257,33.1545727 23.4870851,33.5165012 23.0271222,33.5165012 L15.4029719,33.5165012 C14.9428378,33.5165012 14.5686684,33.1545727 14.5686684,32.7098608 L14.5686684,25.3385053 C14.5686684,24.8936279 14.943009,24.5318649 15.4029719,24.5318649 L23.0271222,24.5318649 C23.1808998,24.5318649 23.3233753,24.5750778 23.4471851,24.6456092 L19.5611323,28.4028117 L18.6507962,27.5226597 C18.1492209,27.0377152 17.3359805,27.0377152 16.8345764,27.5226597 C16.3330011,28.0076042 16.3330011,28.79388 16.8345764,29.2786589 L18.6531936,31.036976 C18.9038957,31.2795311 19.2326852,31.4007258 19.5613035,31.4007258 C19.8899219,31.4007258 20.2187114,31.2795311 20.4694134,31.036976 L23.8614257,27.7574331 L23.8614257,32.7098608 Z" id="Shape" fill-rule="nonzero"></path>
                        </g>
                    </g>
                </g>
            </g>
        </g>
    </g>
</svg>