<?xml version="1.0" encoding="UTF-8"?>
<svg width="40px" height="33px" viewBox="0 0 40 33" version="1.1" xmlns="http://www.w3.org/2000/svg" xmlns:xlink="http://www.w3.org/1999/xlink">
    <!-- Generator: Sketch 52.6 (67491) - http://www.bohemiancoding.com/sketch -->
    <title>writing</title>
    <desc>Created with Sketch.</desc>
    <g id="Landing-Page" stroke="none" stroke-width="1" fill="none" fill-rule="evenodd">
        <g id="Schools" transform="translate(-747.000000, -3918.000000)" fill="#ED1C24" fill-rule="nonzero">
            <g id="Book-Integrations" transform="translate(2.000000, 3342.000000)">
                <g id="Benefits" transform="translate(728.000000, 74.000000)">
                    <g id="Saves-Time" transform="translate(0.000000, 485.000000)">
                        <g id="writing" transform="translate(17.000000, 17.000000)">
                            <path d="M1.94214473,24.4211757 C2.24060664,24.5704648 2.56195666,24.6736545 2.89337747,24.7313552 L2.37702013,25.4689476 C2.27265007,25.6182367 2.20459586,25.7895071 2.1777404,25.9693258 L1.40900271,31.1556745 C1.34400029,31.5949937 1.5322937,32.0333972 1.89606318,32.288013 C2.26013788,32.5429343 2.73621203,32.5698002 3.12622657,32.3585362 L7.46796174,30.0065447 C8.06763204,31.0903414 9.22241701,31.826102 10.5459641,31.826102 C11.4456222,31.826102 12.2674605,31.4863088 12.8897138,30.9285352 C13.5122723,31.4863088 14.3341105,31.826102 15.2334634,31.826102 C17.1722449,31.826102 18.7493931,30.2483383 18.7493931,28.3091054 L18.7493931,27.860322 C20.9292633,28.9215268 23.3566311,29.4814376 25.780642,29.4814376 C28.2846088,29.4814376 30.7678237,28.9068727 32.968446,27.820939 L32.968446,30.6537698 C32.968446,31.0601172 33.178712,31.4374617 33.524171,31.651168 C33.8690196,31.8642638 34.300538,31.8844133 34.6643075,31.7024575 L39.3521119,29.3577932 C39.7491455,29.1590463 40,28.7533095 40,28.3091054 L40,14.2408141 C40,13.5932836 39.4750977,13.0684819 38.8281252,13.0684819 C36.9613652,13.0684819 32.4325574,13.0684819 30.7397476,13.0684819 L22.4728422,9.02179879 L25.6137108,4.53457522 C25.9844993,4.00458339 25.8560203,3.27309696 25.3256249,2.90185843 L21.4859038,0.211905678 C20.9561187,-0.159027569 20.2249177,-0.0304984619 19.853824,0.499798651 C19.3576083,1.2086933 16.1911049,5.73285744 15.6982461,6.43686738 C14.7369425,5.9316044 13.5842937,5.93404676 12.8530927,6.25155339 L8.39386488,8.18956502 C7.74750271,8.47074155 7.20581577,8.9335686 6.82800825,9.52858822 L0.429083487,19.597212 C0.0134341005,20.2514588 -0.158685013,21.3740279 0.178839309,22.3873014 C0.475775355,23.2784571 1.10199596,24.0007847 1.94214473,24.4211757 Z M4.0713558,29.1804169 L4.45587722,26.5872426 L5.50385073,25.0897714 C5.9530694,25.74585 6.56433642,26.2816424 7.27966833,26.6406692 L6.37573778,27.9320663 L4.0713558,29.1804169 Z M10.5459641,29.4817429 C9.89990714,29.4817429 9.37408933,28.9557199 9.37408933,28.3091054 L9.37408933,27.736067 L9.79370598,27.1367733 L11.717839,27.1367733 L11.717839,28.3091054 C11.717839,28.9557199 11.1923264,29.4817429 10.5459641,29.4817429 Z M15.2337686,29.4817429 C14.5874064,29.4817429 14.0618938,28.9557199 14.0618938,28.3091054 L14.0618938,27.1367733 L16.4056434,27.1367733 L16.4056434,28.3091054 C16.4056434,28.9557199 15.8798256,29.4817429 15.2337686,29.4817429 Z M37.6562504,27.5846407 L35.3121956,28.7569729 L35.3121956,15.4131462 L37.6562504,15.4131462 L37.6562504,27.5846407 Z M29.9533097,15.2937759 C30.1138321,15.3722367 30.2899186,15.4131462 30.4684464,15.4131462 L32.968446,15.4131462 L32.968446,25.2241011 C32.1786512,25.5312277 29.726259,27.1367733 25.7809471,27.1367733 C21.5985137,27.1367733 19.0225253,25.2836336 18.101505,24.9157533 C17.9342687,24.8321025 17.7499425,24.7921089 17.5775183,24.7921089 L9.37408933,24.7921089 C8.17566429,24.7921089 7.18506382,23.8875203 7.04742954,22.7249576 C7.08405063,22.5549083 7.08069368,22.3802797 7.04193642,22.2132834 C7.15973421,21.0299606 8.16071062,20.1027802 9.37408933,20.1027802 L16.6067542,20.1027802 C19.0570102,20.1027802 21.361087,19.1481232 23.0938747,17.4146591 C23.5513332,16.9567169 23.5513332,16.2145452 23.0938747,15.7566029 C22.6361112,15.2986606 21.894229,15.2986606 21.4364654,15.7566029 C20.1461824,17.0470842 18.4310948,17.7581159 16.6067542,17.7581159 L16.3583412,17.7581159 L21.1117584,10.9665269 L29.9533097,15.2937759 Z M18.4127842,6.64660495 L20.3326447,7.99173397 L13.4970135,17.7581159 L10.6356858,17.7581159 C11.6320846,16.334526 17.4987829,7.95265623 18.4127842,6.64660495 Z M21.1013824,2.80538526 L23.0215481,4.150209 L21.6769439,6.0711242 L19.7570833,4.72599511 L21.1013824,2.80538526 Z M2.44476918,20.7957995 L8.80585215,10.7867082 C8.93188971,10.5882665 9.11255375,10.4340927 9.32800785,10.3403672 L13.7313885,8.42647381 C13.9270061,8.36907838 14.1287272,8.36510957 14.3191569,8.40754557 L7.49970002,18.1504197 C6.05835501,18.7820747 4.99329167,20.1180449 4.74304764,21.7214534 C4.52881424,22.3234948 3.59772306,22.6275685 2.99042339,22.3238001 C2.41882926,22.0380441 2.19177852,21.3593738 2.44476918,20.7957995 Z" id="Shape"></path>
                        </g>
                    </g>
                </g>
            </g>
        </g>
    </g>
</svg>