<?xml version="1.0" encoding="UTF-8"?>
<svg width="40px" height="28px" viewBox="0 0 40 28" version="1.1" xmlns="http://www.w3.org/2000/svg" xmlns:xlink="http://www.w3.org/1999/xlink">
    <!-- Generator: Sketch 52.6 (67491) - http://www.bohemiancoding.com/sketch -->
    <title>book copy 2</title>
    <desc>Created with Sketch.</desc>
    <g id="Landing-Page" stroke="none" stroke-width="1" fill="none" fill-rule="evenodd">
        <g id="Schools" transform="translate(-1021.000000, -3922.000000)" fill="#28A745" fill-rule="nonzero">
            <g id="Book-Integrations" transform="translate(2.000000, 3342.000000)">
                <g id="Benefits" transform="translate(728.000000, 74.000000)">
                    <g id="Learning-Insights" transform="translate(275.000000, 485.000000)">
                        <g id="book-copy-2" transform="translate(16.000000, 21.000000)">
                            <path d="M39.2246559,2.32999059 C39.2220392,2.32999059 39.2194224,2.32999059 39.2169025,2.32999059 L36.5884861,2.32999059 L36.5884861,1.45248607 C36.6026362,1.10517205 36.372359,0.793033856 36.0302384,0.696016654 C34.2054662,0.229464143 32.3264198,-0.00447402261 30.4400078,6.47938689e-05 C27.3386315,6.47938689e-05 23.1130064,0.680887265 19.9883698,3.78241186 C16.8869936,0.650628489 12.6303547,6.47938689e-05 9.53673192,6.47938689e-05 C7.65031983,-0.00447402261 5.7712735,0.229464143 3.94650126,0.696016654 C3.60438069,0.793033856 3.37410351,1.10517205 3.38825354,1.45248607 L3.38825354,2.32242589 L0.775344059,2.32242589 C0.347160302,2.32242589 0,2.66113507 0,3.0788953 L0,27.2405283 C0,27.6582886 0.347160302,27.9969978 0.775344059,27.9969978 C0.908509401,27.9966195 1.03934871,27.9627675 1.15526265,27.8986567 C1.23279705,27.8608333 8.98623764,23.7229456 19.8100407,26.3857179 L19.9263423,26.3857179 L19.9961233,26.3857179 C20.057957,26.3929989 20.1203722,26.3929989 20.1822059,26.3857179 C31.0370227,23.7002515 38.7904633,27.8305745 38.8369839,27.8986567 C39.076856,28.0337811 39.3724559,28.0337811 39.612328,27.8986567 C39.8507463,27.7643834 39.9983524,27.5167342 40,27.248093 L40,3.08646 C40,2.66869976 39.6529366,2.32999059 39.2246559,2.32999059 Z M1.55068812,26.037742 L1.55068812,3.84292941 L3.40376042,3.84292941 L3.40376042,22.8151823 C3.39891452,23.2329425 3.74210118,23.575434 4.17028494,23.580162 C4.21215352,23.5806348 4.2540221,23.577798 4.29540609,23.5716517 C5.89939911,23.3327019 7.51880209,23.206277 9.14130645,23.193417 C11.388835,23.1554044 13.6269626,23.4852251 15.7627447,24.1692625 C10.9396201,23.6002084 6.04739291,24.2433965 1.55068812,26.037742 Z M9.14130645,21.6880429 C7.73105253,21.6911633 6.32244621,21.7795757 4.92343477,21.9528072 L4.92343477,2.0500969 C6.43302966,1.72197829 7.97460748,1.55451488 9.52122504,1.55082709 C12.4210118,1.55082709 16.4217872,2.20139079 19.1975189,5.25752721 L19.2207792,24.1011803 C17.6080636,23.0723819 14.4601667,21.6880429 9.14130645,21.6880429 Z M20.7714673,5.25752721 C23.5471991,2.23164956 27.5479744,1.55082709 30.4477612,1.55082709 C31.9942818,1.55527135 33.5358597,1.72264021 35.0455515,2.0500969 L35.0455515,21.9528072 C33.6543904,21.7779682 32.2535375,21.6870027 30.8509401,21.6804782 C25.5630936,21.6804782 22.4074433,23.0648172 20.7714673,24.0936156 L20.7714673,5.25752721 Z M38.4415584,26.037742 C33.9352588,24.2384795 29.0317891,23.5951968 24.1984881,24.1692625 C26.3443497,23.4827665 28.5931382,23.1528513 30.8509401,23.193417 C32.4836209,23.2023055 34.113491,23.3261774 35.7278542,23.564087 C36.1511921,23.6267794 36.5465206,23.3427251 36.6107773,22.9296928 C36.617077,22.8893163 36.6199845,22.8484669 36.6194999,22.8076176 L36.6194999,3.84292941 L38.4725722,3.84292941 L38.4415584,26.037742 Z" id="Shape"></path>
                        </g>
                    </g>
                </g>
            </g>
        </g>
    </g>
</svg>