<?xml version="1.0" encoding="UTF-8"?>
<svg width="40px" height="42px" viewBox="0 0 40 42" version="1.1" xmlns="http://www.w3.org/2000/svg" xmlns:xlink="http://www.w3.org/1999/xlink">
    <!-- Generator: Sketch 52.6 (67491) - http://www.bohemiancoding.com/sketch -->
    <title>confetti</title>
    <desc>Created with Sketch.</desc>
    <g id="Landing-Page" stroke="none" stroke-width="1" fill="none" fill-rule="evenodd">
        <g id="Schools" transform="translate(-86.000000, -3094.000000)" fill="#FFCB05" fill-rule="nonzero">
            <g id="Keeping-Students-Engaged" transform="translate(0.000000, 2609.000000)">
                <g id="Benefits" transform="translate(72.000000, 102.000000)">
                    <g id="Saves-Time" transform="translate(0.000000, 369.000000)">
                        <g id="confetti" transform="translate(14.000000, 14.000000)">
                            <path d="M35.7142857,35 L35,35 L35,34.2857143 C35,33.8914467 34.6807353,33.5714286 34.2857143,33.5714286 C33.8906933,33.5714286 33.5714286,33.8914467 33.5714286,34.2857143 L33.5714286,35 L32.8571429,35 C32.4621218,35 32.1428571,35.3200181 32.1428571,35.7142857 C32.1428571,36.1085533 32.4621218,36.4285714 32.8571429,36.4285714 L33.5714286,36.4285714 L33.5714286,37.1428571 C33.5714286,37.5371248 33.8906933,37.8571429 34.2857143,37.8571429 C34.6807353,37.8571429 35,37.5371248 35,37.1428571 L35,36.4285714 L35.7142857,36.4285714 C36.1093067,36.4285714 36.4285714,36.1085533 36.4285714,35.7142857 C36.4285714,35.3200181 36.1093067,35 35.7142857,35 Z" id="Shape"></path>
                            <path d="M32.3523282,4.07645907 C32.491599,4.21573934 32.6744755,4.28571429 32.8572684,4.28571429 C33.040145,4.28571429 33.2229378,4.21573934 33.3622086,4.07645907 L34.2857143,3.15289023 L35.20922,4.07645907 C35.3484907,4.21573934 35.5313673,4.28571429 35.7141602,4.28571429 C35.8970367,4.28571429 36.0798296,4.21573934 36.2191003,4.07645907 C36.4983951,3.7972289 36.4983951,3.34573984 36.2191003,3.06650968 L35.2955946,2.14294084 L36.2191003,1.21937201 C36.4983951,0.940058145 36.4983951,0.488652787 36.2191003,0.209422623 C35.9398893,-0.069807541 35.4884311,-0.069807541 35.20922,0.209422623 L34.2857143,1.13299146 L33.3622086,0.209422623 C33.0829138,-0.069807541 32.6315393,-0.069807541 32.3523282,0.209422623 C32.0730334,0.488736489 32.0730334,0.940141847 32.3523282,1.21937201 L33.2758339,2.14294084 L32.3523282,3.06650968 C32.0730334,3.34573984 32.0730334,3.7971452 32.3523282,4.07645907 Z" id="Shape"></path>
                            <path d="M27.1428571,11.4285714 C27.1428571,11.8228391 27.4621218,12.1428571 27.8571429,12.1428571 C28.2521639,12.1428571 28.5714286,11.8228391 28.5714286,11.4285714 C28.5714286,11.0343038 28.2521639,10.7142857 27.8571429,10.7142857 C27.4621218,10.7142857 27.1428571,11.0343038 27.1428571,11.4285714 Z" id="Shape"></path>
                            <path d="M22.1428571,6.42857143 C22.5378782,6.42857143 22.8571429,6.10855335 22.8571429,5.71428571 C22.8571429,5.32001808 22.5378782,5 22.1428571,5 C21.7478361,5 21.4285714,5.32001808 21.4285714,5.71428571 C21.4285714,6.10855335 21.7478361,6.42857143 22.1428571,6.42857143 Z" id="Shape"></path>
                            <path d="M34.2857143,16.4285714 C34.2857143,16.8228391 34.604979,17.1428571 35,17.1428571 C35.395021,17.1428571 35.7142857,16.8228391 35.7142857,16.4285714 C35.7142857,16.0343038 35.395021,15.7142857 35,15.7142857 C34.604979,15.7142857 34.2857143,16.0343038 34.2857143,16.4285714 Z" id="Shape"></path>
                            <path d="M28.5714286,19.2857143 C28.5714286,19.6799819 28.8906933,20 29.2857143,20 C29.6807353,20 30,19.6799819 30,19.2857143 C30,18.8914467 29.6807353,18.5714286 29.2857143,18.5714286 C28.8906933,18.5714286 28.5714286,18.8914467 28.5714286,19.2857143 Z" id="Shape"></path>
                            <path d="M39.2857143,5 C38.8906933,5 38.5714286,5.32001808 38.5714286,5.71428571 C38.5714286,6.10855335 38.8906933,6.42857143 39.2857143,6.42857143 C39.6807353,6.42857143 40,6.10855335 40,5.71428571 C40,5.32001808 39.6807353,5 39.2857143,5 Z" id="Shape"></path>
                            <path d="M37.8823583,11.1640033 C30.6975279,11.1640033 24.857583,18.0503528 23.7408808,19.455319 L21.0681407,16.7862057 C24.0568022,14.7757256 24.7311015,12.8444815 24.7598363,12.7571044 C24.8796991,12.3994546 24.687515,12.0156078 24.330025,11.8925222 C23.972535,11.7708068 23.5820322,11.959909 23.4559543,12.3155435 C23.4494163,12.3338412 22.8238693,14.0138357 20.0738842,15.7934596 L17.6193995,13.3423054 C18.907219,11.8284402 19.2853722,7.65328046 19.2853722,4.97352706 C19.2853722,4.59387182 18.9775224,4.28571429 18.5966249,4.28571429 C18.2157273,4.28571429 17.9078775,4.59387182 17.9078775,4.97352706 C17.9078775,9.12087769 17.1626291,11.7559752 16.6767204,12.4008249 L14.2621899,9.9895708 C14.1010006,9.8286002 13.870315,9.7584728 13.6464095,9.80038803 C13.4212126,9.84375417 13.233145,9.99432656 13.1429048,10.2034191 L5.9820469,26.7641258 C5.98091688,26.7667858 5.97962543,26.7694458 5.97857613,26.7721864 L0.0563012032,40.4683903 C-0.0552479429,40.726975 0.00189879764,41.028281 0.201670242,41.2270559 C0.333236891,41.3590889 0.509520056,41.4285714 0.688628273,41.4285714 C0.780886358,41.4285714 0.873870885,41.4106769 0.962093184,41.3721471 L10.5912382,37.2196377 C10.5985834,37.2167358 10.6057671,37.2133504 10.6131122,37.2102067 L14.6745666,35.4587144 C14.6798131,35.4566187 14.6848982,35.4542811 14.6899833,35.4520241 L20.8851581,32.7804119 C20.8909696,32.778155 20.8966197,32.775495 20.9023506,32.7729962 L24.9652578,31.0209396 C24.9736522,31.0176348 24.9818045,31.0138463 24.9901182,31.010219 L31.2676231,28.3030595 C31.4769997,28.2129418 31.6285032,28.0252099 31.6712825,27.8009634 C31.7139811,27.5774424 31.643032,27.3469893 31.4818427,27.1853738 L28.310925,24.0187589 C28.7641439,23.2876606 31.3765894,22.1693301 35.8163584,22.1693301 C36.1972559,22.1693301 36.5051058,21.8611725 36.5051058,21.4815173 C36.5051058,21.1018621 36.1972559,20.7937045 35.8163584,20.7937045 C32.2274139,20.7937045 28.6031967,21.5622847 27.3353947,23.0445523 L24.722707,20.4354099 C25.3860289,19.5903344 31.1275006,12.5396288 37.8826812,12.5396288 C38.2635788,12.5396288 38.5714286,12.2314713 38.5714286,11.851816 C38.5711864,11.4721608 38.2632559,11.1640033 37.8823583,11.1640033 Z M20.7868463,31.3247444 L10.1177597,20.6694904 L11.2928194,17.9519327 L23.5085809,30.151118 L20.7868463,31.3247444 Z M14.5756898,34.0031275 L7.43549515,26.8726217 L9.53031062,22.0280274 L19.4264633,31.9113158 L14.5756898,34.0031275 Z M10.4940565,35.7632447 L5.67298635,30.9487165 L6.84804603,28.2312394 L13.2153068,34.5898601 L10.4940565,35.7632447 Z M5.08545652,32.3072535 L9.13359278,36.3498967 L2.00889555,39.4222023 L5.08545652,32.3072535 Z M24.8689639,29.5644661 L11.8802685,16.5933956 L14.0053524,11.6789157 L16.0431019,13.7138194 C16.0431019,13.7138194 16.0431826,13.7139 16.0431826,13.7139 L19.4968475,17.1627173 C19.497251,17.1631203 19.4977353,17.1636039 19.4981389,17.164007 L27.0587011,24.7139875 C27.0620912,24.7174535 27.0654812,24.7207584 27.0688713,24.7241439 L29.7906059,27.4421046 L24.8689639,29.5644661 Z" id="Shape"></path>
                            <path d="M24.9935934,10.7142857 L25.0000385,10.7142857 C25.3893428,10.7142857 25.7071643,10.3991688 25.7142791,10.00902 C25.7157021,9.90752608 25.7935462,7.50156686 28.9392012,5.61354499 C29.2770278,5.41064084 29.387014,4.9711687 29.1834475,4.63310677 C28.9806343,4.29437491 28.5420289,4.18433939 28.2034489,4.38799721 C24.330663,6.71323022 24.2857143,9.86959146 24.2857143,10.0024882 C24.285798,10.3948143 24.601527,10.7106849 24.9935934,10.7142857 Z" id="Shape"></path>
                            <path d="M0.642842076,3.85712779 C1.70613436,3.85712779 2.57144364,4.72243707 2.57144364,5.78572935 C2.57144364,6.14056191 2.85877514,6.42857143 3.21428571,6.42857143 C3.56979629,6.42857143 3.85712779,6.14056191 3.85712779,5.78572935 C3.85712779,4.72243707 4.72243707,3.85712779 5.78572935,3.85712779 C6.14123993,3.85712779 6.42857143,3.56911827 6.42857143,3.21428571 C6.42857143,2.85945316 6.14123993,2.57144364 5.78572935,2.57144364 C4.72243707,2.57144364 3.85712779,1.70613436 3.85712779,0.642842076 C3.85712779,0.288009522 3.56979629,0 3.21428571,0 C2.85877514,0 2.57144364,0.288009522 2.57144364,0.642842076 C2.57144364,1.70613436 1.70613436,2.57144364 0.642842076,2.57144364 C0.287331498,2.57144364 0,2.85945316 0,3.21428571 C8.02941698e-16,3.56911827 0.287331498,3.85712779 0.642842076,3.85712779 Z M3.21428571,2.5694849 C3.39750286,2.81312152 3.61477188,3.03106857 3.85908653,3.21428571 C3.61477188,3.39750286 3.39750286,3.61544991 3.21428571,3.85908653 C3.03106857,3.61544991 2.81379955,3.39750286 2.5694849,3.21428571 C2.81379955,3.03106857 3.03106857,2.81312152 3.21428571,2.5694849 Z" id="Shape"></path>
                        </g>
                    </g>
                </g>
            </g>
        </g>
    </g>
</svg>