<?xml version="1.0" encoding="UTF-8"?>
<svg width="16px" height="14px" viewBox="0 0 16 14" version="1.1" xmlns="http://www.w3.org/2000/svg" xmlns:xlink="http://www.w3.org/1999/xlink">
    <!-- Generator: Sketch 52.6 (67491) - http://www.bohemiancoding.com/sketch -->
    <title>check</title>
    <desc>Created with Sketch.</desc>
    <g id="Platform" stroke="none" stroke-width="1" fill="none" fill-rule="evenodd">
        <g id="Books" transform="translate(-469.000000, -837.000000)" fill="#FFFFFF" stroke="#FFFFFF">
            <g id="Student-Group">
                <g id="Book-One" transform="translate(130.000000, 673.000000)">
                    <g id="Chapters" transform="translate(23.000000, 135.000000)">
                        <g id="Chapter-Four-+-Chapter-Three-+-Chapter-Two-+-Chapter-One-Mask">
                            <g id="Chapter-One" transform="translate(10.000000, 6.000000)">
                                <g id="Correct" transform="translate(294.000000, 0.000000)">
                                    <g id="check" transform="translate(12.000000, 23.000000)">
                                        <path d="M0.922963826,8.49842865 L0.922584134,8.4988081 C0.865460543,8.55583404 0.833360621,8.63323644 0.833360621,8.71395238 C0.833360621,8.79466832 0.865460543,8.87207072 0.922917241,8.92942951 L4.78355923,12.7907394 C4.9032267,12.9099608 5.0967733,12.9099608 5.21576799,12.7914109 L15.0774159,2.92909666 C15.1345395,2.87207072 15.1666394,2.79466832 15.1666394,2.71395238 C15.1666394,2.63323644 15.1345395,2.55583404 15.0770362,2.49842865 L13.548897,0.969622686 C13.4917502,0.912405938 13.4142006,0.880256014 13.3333333,0.880256014 C13.2524661,0.880256014 13.1749164,0.912405938 13.1175686,0.969823926 L4.99994838,9.08814115 L4.64637982,8.73443897 L2.88223032,6.96962269 C2.82508356,6.91240594 2.7475339,6.88025601 2.66666667,6.88025601 C2.58579944,6.88025601 2.50824977,6.91240594 2.45096383,6.96976199 L0.922963826,8.49842865 Z M0.215869778,7.7913091 C0.215940687,7.79123828 0.216011605,7.79116747 0.216082532,7.79109666 L0.21570284,7.79147611 L0.215869778,7.7913091 Z" id="Shape"></path>
                                    </g>
                                </g>
                            </g>
                        </g>
                    </g>
                </g>
            </g>
        </g>
    </g>
</svg>