<?xml version="1.0" encoding="UTF-8"?>
<svg width="30px" height="30px" viewBox="0 0 30 30" version="1.1" xmlns="http://www.w3.org/2000/svg" xmlns:xlink="http://www.w3.org/1999/xlink">
    <!-- Generator: Sketch 52.6 (67491) - http://www.bohemiancoding.com/sketch -->
    <title>Group 6</title>
    <desc>Created with Sketch.</desc>
    <g id="Page-1" stroke="none" stroke-width="1" fill="none" fill-rule="evenodd" stroke-linecap="round" stroke-linejoin="round">
        <g id="Tablet_Overview-Copy-6" transform="translate(-26.000000, -264.000000)" stroke="#54676E">
            <g id="Sidebar" transform="translate(-4.000000, 72.000000)">
                <g id="Books-" transform="translate(19.000000, 192.000000)">
                    <g id="Group-6" transform="translate(11.000000, 0.000000)">
                        <circle id="Oval" cx="15" cy="15.00125" r="14.375"></circle>
                        <g id="book-open" transform="translate(7.000000, 8.000000)">
                            <path d="M8,2.66133333 C8,1.44866667 11.0373333,0.452666667 14.6453333,0.338666667 C14.8258109,0.3328884 15.0009131,0.40056705 15.1305901,0.52622306 C15.2602671,0.651879069 15.3334258,0.824763267 15.3333333,1.00533333 L15.3333333,10.672 C15.3334956,11.0325187 15.0470231,11.3278511 14.6866667,11.3386667 C11.0606667,11.4453333 8,12.444 8,13.6613333 C8,12.444 4.93933333,11.4453333 1.31333333,11.3373333 C0.95297688,11.3265178 0.666504398,11.0311854 0.666666667,10.6706667 L0.666666667,1.00533333 C0.66657419,0.824763267 0.73973294,0.651879069 0.869409941,0.52622306 C0.999086943,0.40056705 1.17418905,0.3328884 1.35466667,0.338666667 C4.962,0.452666667 8,1.44866667 8,2.66133333 Z" id="Shape"></path>
                            <path d="M8,2.66133333 L8,13.578" id="Shape"></path>
                        </g>
                    </g>
                </g>
            </g>
        </g>
    </g>
</svg>