<?xml version="1.0" encoding="UTF-8"?>
<svg width="19px" height="24px" viewBox="0 0 19 24" version="1.1" xmlns="http://www.w3.org/2000/svg" xmlns:xlink="http://www.w3.org/1999/xlink">
    <!-- Generator: Sketch 50.2 (55047) - http://www.bohemiancoding.com/sketch -->
    <title>Group</title>
    <desc>Created with Sketch.</desc>
    <defs></defs>
    <g id="Symbols" stroke="none" stroke-width="1" fill="none" fill-rule="evenodd">
        <g id="LogoutIcon" fill="#54676E" fill-rule="nonzero">
            <g id="Group">
                <path d="M14,22 L2,22 L2,2 L14,2 L14,4 L16,4 L16,1 C16,0.448 15.552,0 15,0 L1,0 C0.448,0 0,0.448 0,1 L0,23 C0,23.552 0.448,24 1,24 L15,24 C15.552,24 16,23.552 16,23 L16,20 L14,20 L14,22 Z" id="Shape"></path>
                <polygon id="Shape" points="19 12 12 6 12 11 5 11 5 13 12 13 12 18"></polygon>
            </g>
        </g>
    </g>
</svg>