<?xml version="1.0" encoding="UTF-8"?>
<svg width="30px" height="30px" viewBox="0 0 30 30" version="1.1" xmlns="http://www.w3.org/2000/svg" xmlns:xlink="http://www.w3.org/1999/xlink">
    <!-- Generator: Sketch 52.6 (67491) - http://www.bohemiancoding.com/sketch -->
    <title>Settings-icon</title>
    <desc>Created with Sketch.</desc>
    <g id="Page-1" stroke="none" stroke-width="1" fill="none" fill-rule="evenodd" stroke-linecap="round" stroke-linejoin="round">
        <g id="Tablet_Overview-Copy-6" transform="translate(-26.000000, -345.000000)" stroke="#54676E">
            <g id="Sidebar" transform="translate(-4.000000, 72.000000)">
                <g id="Settings-" transform="translate(19.000000, 273.000000)">
                    <g id="Settings-icon" transform="translate(11.000000, 0.000000)">
                        <circle id="Oval" cx="15.07875" cy="15.00125" r="1.79625"></circle>
                        <path d="M16.605,8.05 L17.13375,9.79 C17.3145567,10.389834 17.9294674,10.7467555 18.54,10.60625 L20.30375,10.1975 C20.9899213,10.0428371 21.6967938,10.3533406 22.0470986,10.96329 C22.3974035,11.5732393 22.3093769,12.3402676 21.83,12.855 L20.59625,14.185 C20.1702902,14.645809 20.1702902,15.356691 20.59625,15.8175 L21.83,17.1475 C22.3093769,17.6622324 22.3974035,18.4292607 22.0470986,19.03921 C21.6967938,19.6491594 20.9899213,19.9596629 20.30375,19.805 L18.54,19.39625 C17.9294674,19.2557445 17.3145567,19.612666 17.13375,20.2125 L16.605,21.9525 C16.4016618,22.6257268 15.7813893,23.08633 15.078125,23.08633 C14.3748607,23.08633 13.7545882,22.6257268 13.55125,21.9525 L13.0225,20.2125 C12.8416933,19.612666 12.2267826,19.2557445 11.61625,19.39625 L9.8525,19.805 C9.16632867,19.9596629 8.45945625,19.6491594 8.10915138,19.03921 C7.75884652,18.4292607 7.8468731,17.6622324 8.32625,17.1475 L9.56,15.8175 C9.98595984,15.356691 9.98595984,14.645809 9.56,14.185 L8.32625,12.855 C7.8468731,12.3402676 7.75884652,11.5732393 8.10915138,10.96329 C8.45945625,10.3533406 9.16632867,10.0428371 9.8525,10.1975 L11.61625,10.60625 C12.2267826,10.7467555 12.8416933,10.389834 13.0225,9.79 L13.55125,8.05 C13.7545882,7.37677323 14.3748607,6.91616996 15.078125,6.91616996 C15.7813893,6.91616996 16.4016618,7.37677323 16.605,8.05 Z" id="Shape"></path>
                        <circle id="Oval" cx="15" cy="15.00125" r="14.375"></circle>
                    </g>
                </g>
            </g>
        </g>
    </g>
</svg>